<?xml version="1.0" encoding="utf-8" standalone="no"?>
<!DOCTYPE svg PUBLIC "-//W3C//DTD SVG 1.1//EN"
  "http://www.w3.org/Graphics/SVG/1.1/DTD/svg11.dtd">
<!-- Created with matplotlib (http://matplotlib.org/) -->
<svg height="432pt" version="1.1" viewBox="0 0 576 432" width="576pt" xmlns="http://www.w3.org/2000/svg" xmlns:xlink="http://www.w3.org/1999/xlink">
 <defs>
  <style type="text/css">
*{stroke-linecap:butt;stroke-linejoin:round;}
  </style>
 </defs>
 <g id="figure_1">
  <g id="patch_1">
   <path d="
M0 432
L576 432
L576 0
L0 0
z
" style="fill:#ffffff;"/>
  </g>
  <g id="axes_1">
   <g id="patch_2">
    <path d="
M295.2 388.8
C341.027 388.8 384.983 370.593 417.388 338.188
C449.793 305.783 468 261.827 468 216
C468 170.173 449.793 126.217 417.388 93.8119
C384.983 61.4073 341.027 43.2 295.2 43.2
C249.373 43.2 205.417 61.4073 173.012 93.8119
C140.607 126.217 122.4 170.173 122.4 216
C122.4 261.827 140.607 305.783 173.012 338.188
C205.417 370.593 249.373 388.8 295.2 388.8
z
" style="fill:#ffffff;"/>
   </g>
   <g id="line2d_1">
    <path clip-path="url(#pbd74c3c836)" d="
M124.622 216
L124.715 217.608
L124.993 219.212
L125.456 220.805
L126.103 222.384
L126.933 223.943
L127.943 225.478
L129.568 227.477
L131.505 229.414
L133.748 231.277
L136.289 233.056
L139.117 234.741
L142.225 236.323
L145.6 237.793
L149.231 239.143
L153.105 240.365
L157.209 241.452
L161.529 242.398
L166.05 243.197
L170.756 243.845
L176.874 244.437
L183.226 244.78
L189.776 244.871
L196.491 244.708
L203.337 244.291
L210.28 243.622
L217.284 242.705
L224.315 241.548
L231.338 240.158
L238.321 238.545
L245.231 236.721
L252.036 234.7
L258.705 232.497
L265.211 230.128
L271.524 227.612
L277.62 224.968
L283.474 222.216
L289.066 219.376
L294.374 216.471
M295.169 216.072
L293.517 220.19
L292.19 224.073
L291.185 227.655
L290.491 230.874
L290.088 233.679
L289.951 236.029
L290.048 237.89
L290.344 239.243
L290.734 240.001
L291.145 240.335
L291.529 240.393
L291.939 240.255
L292.451 239.84
L293.058 239.027
L293.731 237.695
L294.351 235.977
L294.95 233.649
L295.412 230.983
L295.735 227.733
L295.841 224.306
L295.726 220.834
L295.403 217.444
L295.221 216.139
M295.286 216.13
L297.171 218.811
L299.283 221.449
L301.553 223.945
L303.904 226.209
L306.246 228.159
L308.485 229.731
L310.332 230.779
L311.946 231.454
L313.13 231.731
L313.937 231.722
L314.436 231.532
L314.741 231.178
L314.839 230.669
L314.717 230.012
L314.287 229.076
L313.535 227.977
L312.277 226.552
L310.592 224.984
L308.49 223.315
L305.987 221.588
L303.109 219.848
L299.892 218.139
L296.377 216.501
L295.457 216.108
M124.632 216
L124.781 214.392
L125.116 212.79
L125.636 211.2
L126.339 209.625
L127.224 208.07
L128.684 206.039
L130.46 204.064
L132.545 202.156
L134.932 200.326
L137.612 198.585
L140.576 196.941
L143.814 195.403
L147.314 193.982
L151.065 192.683
L155.052 191.515
L159.262 190.485
L163.682 189.597
L168.295 188.859
L174.309 188.15
L180.57 187.687
L187.044 187.475
L193.697 187.515
L200.496 187.81
L207.406 188.357
L214.392 189.153
L221.42 190.192
L228.454 191.469
L235.463 192.972
L242.411 194.691
L249.267 196.614
L256.001 198.725
L262.583 201.008
L268.984 203.447
L275.178 206.023
L281.14 208.716
L286.848 211.505
L292.281 214.369
L294.373 215.531
M295.169 215.928
L293.503 211.816
L292.164 207.937
L291.148 204.358
L290.444 201.141
L290.033 198.337
L289.888 195.988
L289.979 194.126
L290.27 192.773
L290.659 192.013
L291.069 191.678
L291.452 191.619
L291.863 191.755
L292.377 192.169
L292.985 192.98
L293.663 194.31
L294.289 196.026
L294.895 198.352
L295.365 201.016
L295.698 204.265
L295.815 207.692
L295.711 211.165
L295.399 214.555
L295.221 215.861
M295.285 215.869
L297.162 213.183
L299.266 210.539
L301.528 208.035
L303.872 205.764
L306.207 203.806
L308.441 202.227
L310.285 201.174
L311.897 200.493
L313.081 200.213
L313.888 200.219
L314.387 200.407
L314.693 200.76
L314.793 201.27
L314.673 201.927
L314.245 202.864
L313.497 203.966
L312.244 205.395
L310.564 206.968
L308.466 208.644
L305.969 210.378
L303.097 212.127
L299.885 213.846
L296.375 215.495
L295.457 215.892
L295.457 215.892" style="fill:none;stroke:#0000ff;stroke-linecap:square;"/>
   </g>
   <g id="line2d_2">
    <path clip-path="url(#pbd74c3c836)" d="
M124.622 216
L124.766 218.144
L125.196 220.278
L125.911 222.391
L126.91 224.475
L128.187 226.518
L129.741 228.512
L131.564 230.446
L133.653 232.312
L135.999 234.101
L138.595 235.804
L141.432 237.413
L144.503 238.922
L147.796 240.322
L151.302 241.606
L155.009 242.77
L159.907 244.047
L165.078 245.116
L170.495 245.97
L176.133 246.603
L181.964 247.01
L187.961 247.189
L194.096 247.137
L200.339 246.855
L206.663 246.346
L213.039 245.612
L219.438 244.66
L225.831 243.495
L232.193 242.127
L238.495 240.566
L244.711 238.822
L250.817 236.909
L256.789 234.839
L263.745 232.171
L270.438 229.326
L276.835 226.335
L282.906 223.227
L288.623 220.035
L293.964 216.791
L294.817 216.247
M295.145 216.152
L293.872 220.019
L292.915 223.633
L292.264 226.923
L291.901 229.822
L291.799 232.278
L291.923 234.25
L292.234 235.709
L292.633 236.561
L293.05 236.96
L293.442 237.047
L293.851 236.903
L294.331 236.453
L294.861 235.584
L295.4 234.187
L295.845 232.394
L296.193 230.004
L296.357 227.279
L296.317 224.308
L296.065 221.189
L295.601 218.015
L295.227 216.124
M295.331 216.123
L297.839 218.315
L300.538 220.394
L303.387 222.318
L306.34 224.051
L309.355 225.567
L312.386 226.844
L315.391 227.87
L318.333 228.638
L321.176 229.148
L323.89 229.406
L326.449 229.421
L328.834 229.209
L331.028 228.786
L333.022 228.171
L334.809 227.385
L336.389 226.449
L337.762 225.383
L338.933 224.209
L339.992 222.813
L340.821 221.332
L341.427 219.788
L341.818 218.201
L341.998 216.589
L342.011 216
L124.63 216
L124.839 213.857
L125.334 211.726
L126.114 209.616
L127.176 207.539
L128.516 205.503
L130.131 203.518
L132.016 201.594
L134.163 199.74
L136.567 197.964
L139.219 196.275
L142.111 194.681
L145.233 193.189
L148.576 191.807
L152.129 190.541
L155.881 189.396
L160.832 188.145
L166.051 187.102
L171.512 186.274
L177.188 185.668
L183.054 185.288
L189.08 185.137
L195.239 185.215
L201.502 185.523
L207.841 186.058
L214.225 186.816
L220.629 187.791
L227.022 188.977
L233.378 190.364
L239.67 191.943
L245.872 193.702
L251.959 195.629
L257.907 197.709
L264.83 200.387
L271.486 203.237
L277.84 206.23
L283.863 209.335
L289.529 212.521
L294.816 215.754
M295.144 215.848
L293.859 211.985
L292.891 208.374
L292.23 205.087
L291.858 202.188
L291.748 199.732
L291.865 197.76
L292.172 196.301
L292.568 195.448
L292.984 195.047
L293.376 194.959
L293.785 195.101
L294.267 195.55
L294.8 196.418
L295.343 197.812
L295.793 199.604
L296.149 201.992
L296.321 204.718
L296.291 207.688
L296.048 210.809
L295.595 213.984
L295.227 215.876
M295.331 215.877
L297.832 213.676
L300.524 211.589
L303.367 209.657
L306.315 207.914
L309.324 206.389
L312.351 205.102
L315.354 204.066
L318.293 203.289
L321.135 202.77
L323.848 202.504
L326.407 202.48
L328.792 202.685
L330.987 203.102
L332.983 203.71
L334.773 204.491
L336.356 205.422
L337.733 206.483
L338.907 207.654
L339.971 209.046
L340.804 210.524
L341.415 212.067
L341.811 213.653
L341.995 215.264
L342.011 215.853
L342.011 215.853" style="fill:none;stroke:#ffa500;stroke-linecap:square;"/>
   </g>
   <g id="matplotlib.axis_1">
    <g id="xtick_1">
     <g id="line2d_3">
      <path clip-path="url(#pbd74c3c836)" d="
M295.2 216
L122.4 216" style="fill:none;stroke:#000000;stroke-dasharray:1.000000,3.000000;stroke-dashoffset:0.0;stroke-width:0.5;"/>
     </g>
     <g id="text_1">
      <!-- 0° -->
      <defs>
       <path d="
M25 67.9219
Q21.0938 67.9219 18.4062 65.2031
Q15.7188 62.5 15.7188 58.5938
Q15.7188 54.7344 18.4062 52.0781
Q21.0938 49.4219 25 49.4219
Q28.9062 49.4219 31.5938 52.0781
Q34.2812 54.7344 34.2812 58.5938
Q34.2812 62.4531 31.5625 65.1875
Q28.8594 67.9219 25 67.9219
M25 74.2188
Q28.125 74.2188 31 73.0156
Q33.8906 71.8281 35.9844 69.5781
Q38.2344 67.3906 39.3594 64.5938
Q40.4844 61.8125 40.4844 58.5938
Q40.4844 52.1562 35.9688 47.6875
Q31.4531 43.2188 24.9062 43.2188
Q18.3125 43.2188 13.9062 47.6094
Q9.51562 52 9.51562 58.5938
Q9.51562 65.1406 14 69.6719
Q18.5 74.2188 25 74.2188" id="BitstreamVeraSans-Roman-b0"/>
       <path d="
M31.7812 66.4062
Q24.1719 66.4062 20.3281 58.9062
Q16.5 51.4219 16.5 36.375
Q16.5 21.3906 20.3281 13.8906
Q24.1719 6.39062 31.7812 6.39062
Q39.4531 6.39062 43.2812 13.8906
Q47.125 21.3906 47.125 36.375
Q47.125 51.4219 43.2812 58.9062
Q39.4531 66.4062 31.7812 66.4062
M31.7812 74.2188
Q44.0469 74.2188 50.5156 64.5156
Q56.9844 54.8281 56.9844 36.375
Q56.9844 17.9688 50.5156 8.26562
Q44.0469 -1.42188 31.7812 -1.42188
Q19.5312 -1.42188 13.0625 8.26562
Q6.59375 17.9688 6.59375 36.375
Q6.59375 54.8281 13.0625 64.5156
Q19.5312 74.2188 31.7812 74.2188" id="BitstreamVeraSans-Roman-30"/>
      </defs>
      <g transform="translate(99.2690625 219.31125)scale(0.12 -0.12)">
       <use xlink:href="#BitstreamVeraSans-Roman-30"/>
       <use x="63.623046875" xlink:href="#BitstreamVeraSans-Roman-b0"/>
      </g>
     </g>
    </g>
    <g id="xtick_2">
     <g id="line2d_4">
      <path clip-path="url(#pbd74c3c836)" d="
M295.2 216
L173.012 338.188" style="fill:none;stroke:#000000;stroke-dasharray:1.000000,3.000000;stroke-dashoffset:0.0;stroke-width:0.5;"/>
     </g>
     <g id="text_2">
      <!-- 45° -->
      <defs>
       <path d="
M37.7969 64.3125
L12.8906 25.3906
L37.7969 25.3906
z

M35.2031 72.9062
L47.6094 72.9062
L47.6094 25.3906
L58.0156 25.3906
L58.0156 17.1875
L47.6094 17.1875
L47.6094 0
L37.7969 0
L37.7969 17.1875
L4.89062 17.1875
L4.89062 26.7031
z
" id="BitstreamVeraSans-Roman-34"/>
       <path d="
M10.7969 72.9062
L49.5156 72.9062
L49.5156 64.5938
L19.8281 64.5938
L19.8281 46.7344
Q21.9688 47.4688 24.1094 47.8281
Q26.2656 48.1875 28.4219 48.1875
Q40.625 48.1875 47.75 41.5
Q54.8906 34.8125 54.8906 23.3906
Q54.8906 11.625 47.5625 5.09375
Q40.2344 -1.42188 26.9062 -1.42188
Q22.3125 -1.42188 17.5469 -0.640625
Q12.7969 0.140625 7.71875 1.70312
L7.71875 11.625
Q12.1094 9.23438 16.7969 8.0625
Q21.4844 6.89062 26.7031 6.89062
Q35.1562 6.89062 40.0781 11.3281
Q45.0156 15.7656 45.0156 23.3906
Q45.0156 31 40.0781 35.4375
Q35.1562 39.8906 26.7031 39.8906
Q22.75 39.8906 18.8125 39.0156
Q14.8906 38.1406 10.7969 36.2812
z
" id="BitstreamVeraSans-Roman-35"/>
      </defs>
      <g transform="translate(151.022518032 353.718106968)scale(0.12 -0.12)">
       <use xlink:href="#BitstreamVeraSans-Roman-34"/>
       <use x="63.623046875" xlink:href="#BitstreamVeraSans-Roman-35"/>
       <use x="127.24609375" xlink:href="#BitstreamVeraSans-Roman-b0"/>
      </g>
     </g>
    </g>
    <g id="xtick_3">
     <g id="line2d_5">
      <path clip-path="url(#pbd74c3c836)" d="
M295.2 216
L295.2 388.8" style="fill:none;stroke:#000000;stroke-dasharray:1.000000,3.000000;stroke-dashoffset:0.0;stroke-width:0.5;"/>
     </g>
     <g id="text_3">
      <!-- 90° -->
      <defs>
       <path d="
M10.9844 1.51562
L10.9844 10.5
Q14.7031 8.73438 18.5 7.8125
Q22.3125 6.89062 25.9844 6.89062
Q35.75 6.89062 40.8906 13.4531
Q46.0469 20.0156 46.7812 33.4062
Q43.9531 29.2031 39.5938 26.9531
Q35.25 24.7031 29.9844 24.7031
Q19.0469 24.7031 12.6719 31.3125
Q6.29688 37.9375 6.29688 49.4219
Q6.29688 60.6406 12.9375 67.4219
Q19.5781 74.2188 30.6094 74.2188
Q43.2656 74.2188 49.9219 64.5156
Q56.5938 54.8281 56.5938 36.375
Q56.5938 19.1406 48.4062 8.85938
Q40.2344 -1.42188 26.4219 -1.42188
Q22.7031 -1.42188 18.8906 -0.6875
Q15.0938 0.046875 10.9844 1.51562
M30.6094 32.4219
Q37.25 32.4219 41.125 36.9531
Q45.0156 41.5 45.0156 49.4219
Q45.0156 57.2812 41.125 61.8438
Q37.25 66.4062 30.6094 66.4062
Q23.9688 66.4062 20.0938 61.8438
Q16.2188 57.2812 16.2188 49.4219
Q16.2188 41.5 20.0938 36.9531
Q23.9688 32.4219 30.6094 32.4219" id="BitstreamVeraSans-Roman-39"/>
      </defs>
      <g transform="translate(285.51375 409.39125)scale(0.12 -0.12)">
       <use xlink:href="#BitstreamVeraSans-Roman-39"/>
       <use x="63.623046875" xlink:href="#BitstreamVeraSans-Roman-30"/>
       <use x="127.24609375" xlink:href="#BitstreamVeraSans-Roman-b0"/>
      </g>
     </g>
    </g>
    <g id="xtick_4">
     <g id="line2d_6">
      <path clip-path="url(#pbd74c3c836)" d="
M295.2 216
L417.388 338.188" style="fill:none;stroke:#000000;stroke-dasharray:1.000000,3.000000;stroke-dashoffset:0.0;stroke-width:0.5;"/>
     </g>
     <g id="text_4">
      <!-- 135° -->
      <defs>
       <path d="
M40.5781 39.3125
Q47.6562 37.7969 51.625 33
Q55.6094 28.2188 55.6094 21.1875
Q55.6094 10.4062 48.1875 4.48438
Q40.7656 -1.42188 27.0938 -1.42188
Q22.5156 -1.42188 17.6562 -0.515625
Q12.7969 0.390625 7.625 2.20312
L7.625 11.7188
Q11.7188 9.32812 16.5938 8.10938
Q21.4844 6.89062 26.8125 6.89062
Q36.0781 6.89062 40.9375 10.5469
Q45.7969 14.2031 45.7969 21.1875
Q45.7969 27.6406 41.2812 31.2656
Q36.7656 34.9062 28.7188 34.9062
L20.2188 34.9062
L20.2188 43.0156
L29.1094 43.0156
Q36.375 43.0156 40.2344 45.9219
Q44.0938 48.8281 44.0938 54.2969
Q44.0938 59.9062 40.1094 62.9062
Q36.1406 65.9219 28.7188 65.9219
Q24.6562 65.9219 20.0156 65.0312
Q15.375 64.1562 9.8125 62.3125
L9.8125 71.0938
Q15.4375 72.6562 20.3438 73.4375
Q25.25 74.2188 29.5938 74.2188
Q40.8281 74.2188 47.3594 69.1094
Q53.9062 64.0156 53.9062 55.3281
Q53.9062 49.2656 50.4375 45.0938
Q46.9688 40.9219 40.5781 39.3125" id="BitstreamVeraSans-Roman-33"/>
       <path d="
M12.4062 8.29688
L28.5156 8.29688
L28.5156 63.9219
L10.9844 60.4062
L10.9844 69.3906
L28.4219 72.9062
L38.2812 72.9062
L38.2812 8.29688
L54.3906 8.29688
L54.3906 0
L12.4062 0
z
" id="BitstreamVeraSans-Roman-31"/>
      </defs>
      <g transform="translate(416.384356968 353.718106968)scale(0.12 -0.12)">
       <use xlink:href="#BitstreamVeraSans-Roman-31"/>
       <use x="63.623046875" xlink:href="#BitstreamVeraSans-Roman-33"/>
       <use x="127.24609375" xlink:href="#BitstreamVeraSans-Roman-35"/>
       <use x="190.869140625" xlink:href="#BitstreamVeraSans-Roman-b0"/>
      </g>
     </g>
    </g>
    <g id="xtick_5">
     <g id="line2d_7">
      <path clip-path="url(#pbd74c3c836)" d="
M295.2 216
L468 216" style="fill:none;stroke:#000000;stroke-dasharray:1.000000,3.000000;stroke-dashoffset:0.0;stroke-width:0.5;"/>
     </g>
     <g id="text_5">
      <!-- 180° -->
      <defs>
       <path d="
M31.7812 34.625
Q24.75 34.625 20.7188 30.8594
Q16.7031 27.0938 16.7031 20.5156
Q16.7031 13.9219 20.7188 10.1562
Q24.75 6.39062 31.7812 6.39062
Q38.8125 6.39062 42.8594 10.1719
Q46.9219 13.9688 46.9219 20.5156
Q46.9219 27.0938 42.8906 30.8594
Q38.875 34.625 31.7812 34.625
M21.9219 38.8125
Q15.5781 40.375 12.0312 44.7188
Q8.5 49.0781 8.5 55.3281
Q8.5 64.0625 14.7188 69.1406
Q20.9531 74.2188 31.7812 74.2188
Q42.6719 74.2188 48.875 69.1406
Q55.0781 64.0625 55.0781 55.3281
Q55.0781 49.0781 51.5312 44.7188
Q48 40.375 41.7031 38.8125
Q48.8281 37.1562 52.7969 32.3125
Q56.7812 27.4844 56.7812 20.5156
Q56.7812 9.90625 50.3125 4.23438
Q43.8438 -1.42188 31.7812 -1.42188
Q19.7344 -1.42188 13.25 4.23438
Q6.78125 9.90625 6.78125 20.5156
Q6.78125 27.4844 10.7812 32.3125
Q14.7969 37.1562 21.9219 38.8125
M18.3125 54.3906
Q18.3125 48.7344 21.8438 45.5625
Q25.3906 42.3906 31.7812 42.3906
Q38.1406 42.3906 41.7188 45.5625
Q45.3125 48.7344 45.3125 54.3906
Q45.3125 60.0625 41.7188 63.2344
Q38.1406 66.4062 31.7812 66.4062
Q25.3906 66.4062 21.8438 63.2344
Q18.3125 60.0625 18.3125 54.3906" id="BitstreamVeraSans-Roman-38"/>
      </defs>
      <g transform="translate(472.0575 219.31125)scale(0.12 -0.12)">
       <use xlink:href="#BitstreamVeraSans-Roman-31"/>
       <use x="63.623046875" xlink:href="#BitstreamVeraSans-Roman-38"/>
       <use x="127.24609375" xlink:href="#BitstreamVeraSans-Roman-30"/>
       <use x="190.869140625" xlink:href="#BitstreamVeraSans-Roman-b0"/>
      </g>
     </g>
    </g>
    <g id="xtick_6">
     <g id="line2d_8">
      <path clip-path="url(#pbd74c3c836)" d="
M295.2 216
L417.388 93.8119" style="fill:none;stroke:#000000;stroke-dasharray:1.000000,3.000000;stroke-dashoffset:0.0;stroke-width:0.5;"/>
     </g>
     <g id="text_6">
      <!-- 225° -->
      <defs>
       <path d="
M19.1875 8.29688
L53.6094 8.29688
L53.6094 0
L7.32812 0
L7.32812 8.29688
Q12.9375 14.1094 22.625 23.8906
Q32.3281 33.6875 34.8125 36.5312
Q39.5469 41.8438 41.4219 45.5312
Q43.3125 49.2188 43.3125 52.7812
Q43.3125 58.5938 39.2344 62.25
Q35.1562 65.9219 28.6094 65.9219
Q23.9688 65.9219 18.8125 64.3125
Q13.6719 62.7031 7.8125 59.4219
L7.8125 69.3906
Q13.7656 71.7812 18.9375 73
Q24.125 74.2188 28.4219 74.2188
Q39.75 74.2188 46.4844 68.5469
Q53.2188 62.8906 53.2188 53.4219
Q53.2188 48.9219 51.5312 44.8906
Q49.8594 40.875 45.4062 35.4062
Q44.1875 33.9844 37.6406 27.2188
Q31.1094 20.4531 19.1875 8.29688" id="BitstreamVeraSans-Roman-32"/>
      </defs>
      <g transform="translate(416.164981968 84.9043930321)scale(0.12 -0.12)">
       <use xlink:href="#BitstreamVeraSans-Roman-32"/>
       <use x="63.623046875" xlink:href="#BitstreamVeraSans-Roman-32"/>
       <use x="127.24609375" xlink:href="#BitstreamVeraSans-Roman-35"/>
       <use x="190.869140625" xlink:href="#BitstreamVeraSans-Roman-b0"/>
      </g>
     </g>
    </g>
    <g id="xtick_7">
     <g id="line2d_9">
      <path clip-path="url(#pbd74c3c836)" d="
M295.2 216
L295.2 43.2" style="fill:none;stroke:#000000;stroke-dasharray:1.000000,3.000000;stroke-dashoffset:0.0;stroke-width:0.5;"/>
     </g>
     <g id="text_7">
      <!-- 270° -->
      <defs>
       <path d="
M8.20312 72.9062
L55.0781 72.9062
L55.0781 68.7031
L28.6094 0
L18.3125 0
L43.2188 64.5938
L8.20312 64.5938
z
" id="BitstreamVeraSans-Roman-37"/>
      </defs>
      <g transform="translate(281.758125 29.23125)scale(0.12 -0.12)">
       <use xlink:href="#BitstreamVeraSans-Roman-32"/>
       <use x="63.623046875" xlink:href="#BitstreamVeraSans-Roman-37"/>
       <use x="127.24609375" xlink:href="#BitstreamVeraSans-Roman-30"/>
       <use x="190.869140625" xlink:href="#BitstreamVeraSans-Roman-b0"/>
      </g>
     </g>
    </g>
    <g id="xtick_8">
     <g id="line2d_10">
      <path clip-path="url(#pbd74c3c836)" d="
M295.2 216
L173.012 93.8119" style="fill:none;stroke:#000000;stroke-dasharray:1.000000,3.000000;stroke-dashoffset:0.0;stroke-width:0.5;"/>
     </g>
     <g id="text_8">
      <!-- 315° -->
      <g transform="translate(147.369080532 84.9043930321)scale(0.12 -0.12)">
       <use xlink:href="#BitstreamVeraSans-Roman-33"/>
       <use x="63.623046875" xlink:href="#BitstreamVeraSans-Roman-31"/>
       <use x="127.24609375" xlink:href="#BitstreamVeraSans-Roman-35"/>
       <use x="190.869140625" xlink:href="#BitstreamVeraSans-Roman-b0"/>
      </g>
     </g>
    </g>
   </g>
   <g id="matplotlib.axis_2">
    <g id="ytick_1">
     <g id="line2d_11">
      <path clip-path="url(#pbd74c3c836)" d="
M252 216
L252.026 217.508
L252.105 219.013
L252.42 222.012
L252.944 224.982
L253.673 227.908
L254.605 230.775
L255.735 233.571
L257.057 236.281
L258.564 238.893
L260.25 241.392
L262.107 243.768
L264.125 246.009
L266.294 248.104
L268.603 250.042
L271.043 251.814
L273.6 253.412
L276.262 254.828
L279.017 256.054
L281.85 257.086
L284.749 257.917
L287.698 258.544
L290.684 258.963
L293.692 259.174
L296.708 259.174
L299.716 258.963
L302.702 258.544
L305.651 257.917
L308.55 257.086
L311.383 256.054
L314.138 254.828
L316.8 253.412
L319.357 251.814
L321.797 250.042
L324.106 248.104
L326.275 246.009
L328.293 243.768
L330.15 241.392
L331.836 238.893
L333.343 236.281
L334.665 233.571
L335.795 230.775
L336.727 227.908
L337.456 224.982
L337.98 222.012
L338.295 219.013
L338.4 216
L338.295 212.987
L337.98 209.988
L337.456 207.018
L336.727 204.092
L335.795 201.225
L334.665 198.429
L333.343 195.719
L331.836 193.107
L330.15 190.608
L328.293 188.232
L326.275 185.991
L324.106 183.896
L321.797 181.958
L319.357 180.186
L316.8 178.588
L314.138 177.172
L311.383 175.946
L308.55 174.914
L305.651 174.083
L302.702 173.456
L299.716 173.037
L296.708 172.826
L293.692 172.826
L290.684 173.037
L287.698 173.456
L284.749 174.083
L281.85 174.914
L279.017 175.946
L276.262 177.172
L273.6 178.588
L271.043 180.186
L268.603 181.958
L266.294 183.896
L264.125 185.991
L262.107 188.232
L260.25 190.608
L258.564 193.107
L257.057 195.719
L255.735 198.429
L254.605 201.225
L253.673 204.092
L252.944 207.018
L252.42 209.988
L252.105 212.987
L252 216
L252 216" style="fill:none;stroke:#000000;stroke-dasharray:1.000000,3.000000;stroke-dashoffset:0.0;stroke-width:0.5;"/>
     </g>
     <g id="text_9">
      <!-- 5 -->
      <g transform="translate(255.288404196 230.036299278)scale(0.12 -0.12)">
       <use xlink:href="#BitstreamVeraSans-Roman-35"/>
      </g>
     </g>
    </g>
    <g id="ytick_2">
     <g id="line2d_12">
      <path clip-path="url(#pbd74c3c836)" d="
M208.8 216
L208.853 219.015
L209.01 222.027
L209.641 228.025
L210.688 233.964
L212.147 239.815
L214.011 245.551
L216.27 251.142
L218.913 256.562
L221.929 261.785
L225.301 266.785
L229.014 271.537
L233.049 276.018
L237.387 280.208
L242.007 284.084
L246.886 287.629
L252 290.825
L257.325 293.656
L262.834 296.109
L268.501 298.171
L274.298 299.834
L280.197 301.087
L286.169 301.927
L292.185 302.347
L298.215 302.347
L304.231 301.927
L310.203 301.087
L316.102 299.834
L321.899 298.171
L327.566 296.109
L333.075 293.656
L338.4 290.825
L343.514 287.629
L348.393 284.084
L353.013 280.208
L357.351 276.018
L361.386 271.537
L365.099 266.785
L368.471 261.785
L371.487 256.562
L374.13 251.142
L376.389 245.551
L378.253 239.815
L379.712 233.964
L380.759 228.025
L381.39 222.027
L381.6 216
L381.39 209.973
L380.759 203.975
L379.712 198.036
L378.253 192.185
L376.389 186.449
L374.13 180.858
L371.487 175.438
L368.471 170.215
L365.099 165.215
L361.386 160.463
L357.351 155.982
L353.013 151.792
L348.393 147.916
L343.514 144.371
L338.4 141.175
L333.075 138.344
L327.566 135.891
L321.899 133.829
L316.102 132.166
L310.203 130.913
L304.231 130.073
L298.215 129.653
L292.185 129.653
L286.169 130.073
L280.197 130.913
L274.298 132.166
L268.501 133.829
L262.834 135.891
L257.325 138.344
L252 141.175
L246.886 144.371
L242.007 147.916
L237.387 151.792
L233.049 155.982
L229.014 160.463
L225.301 165.215
L221.929 170.215
L218.913 175.438
L216.27 180.858
L214.011 186.449
L212.147 192.185
L210.688 198.036
L209.641 203.975
L209.01 209.973
L208.8 216
L208.8 216" style="fill:none;stroke:#000000;stroke-dasharray:1.000000,3.000000;stroke-dashoffset:0.0;stroke-width:0.5;"/>
     </g>
     <g id="text_10">
      <!-- 10 -->
      <g transform="translate(215.376808391 246.568223556)scale(0.12 -0.12)">
       <use xlink:href="#BitstreamVeraSans-Roman-31"/>
       <use x="63.623046875" xlink:href="#BitstreamVeraSans-Roman-30"/>
      </g>
     </g>
    </g>
    <g id="ytick_3">
     <g id="line2d_13">
      <path clip-path="url(#pbd74c3c836)" d="
M165.6 216
L165.679 220.523
L165.916 225.04
L166.31 229.547
L166.861 234.037
L167.569 238.505
L168.432 242.945
L169.45 247.353
L170.62 251.723
L171.943 256.049
L173.416 260.326
L175.037 264.549
L176.805 268.713
L178.716 272.813
L180.77 276.844
L182.963 280.8
L185.293 284.678
L187.757 288.471
L190.351 292.177
L193.074 295.79
L195.921 299.305
L198.888 302.719
L201.974 306.028
L205.172 309.226
L208.481 312.312
L211.895 315.279
L215.41 318.126
L219.023 320.849
L222.729 323.443
L226.522 325.907
L230.4 328.237
L234.356 330.43
L238.387 332.484
L242.487 334.395
L246.651 336.163
L250.874 337.784
L255.151 339.257
L259.477 340.58
L263.847 341.75
L268.255 342.768
L272.695 343.631
L277.163 344.339
L281.653 344.89
L286.16 345.284
L290.677 345.521
L295.2 345.6
L299.723 345.521
L304.24 345.284
L308.747 344.89
L313.237 344.339
L317.705 343.631
L322.145 342.768
L326.553 341.75
L330.923 340.58
L335.249 339.257
L339.526 337.784
L343.749 336.163
L347.913 334.395
L352.013 332.484
L356.044 330.43
L360 328.237
L363.878 325.907
L367.671 323.443
L371.377 320.849
L374.99 318.126
L378.505 315.279
L381.919 312.312
L385.228 309.226
L388.426 306.028
L391.512 302.719
L394.479 299.305
L397.326 295.79
L400.049 292.177
L402.643 288.471
L405.107 284.678
L407.437 280.8
L409.63 276.844
L411.684 272.813
L413.595 268.713
L415.363 264.549
L416.984 260.326
L418.457 256.049
L419.78 251.723
L420.95 247.353
L421.968 242.945
L422.831 238.505
L423.539 234.037
L424.09 229.547
L424.484 225.04
L424.721 220.523
L424.8 216
L424.721 211.477
L424.484 206.96
L424.09 202.453
L423.539 197.963
L422.831 193.495
L421.968 189.055
L420.95 184.647
L419.78 180.277
L418.457 175.951
L416.984 171.674
L415.363 167.451
L413.595 163.287
L411.684 159.187
L409.63 155.156
L407.437 151.2
L405.107 147.322
L402.643 143.529
L400.049 139.823
L397.326 136.21
L394.479 132.695
L391.512 129.281
L388.426 125.972
L385.228 122.774
L381.919 119.688
L378.505 116.721
L374.99 113.874
L371.377 111.151
L367.671 108.557
L363.878 106.093
L360 103.763
L356.044 101.57
L352.013 99.5163
L347.913 97.6045
L343.749 95.837
L339.526 94.2158
L335.249 92.7431
L330.923 91.4205
L326.553 90.2497
L322.145 89.2321
L317.705 88.3689
L313.237 87.6613
L308.747 87.11
L304.24 86.7157
L299.723 86.4789
L295.2 86.4
L290.677 86.4789
L286.16 86.7157
L281.653 87.11
L277.163 87.6613
L272.695 88.3689
L268.255 89.2321
L263.847 90.2497
L259.477 91.4205
L255.151 92.7431
L250.874 94.2158
L246.651 95.837
L242.487 97.6045
L238.387 99.5163
L234.356 101.57
L230.4 103.763
L226.522 106.093
L222.729 108.557
L219.023 111.151
L215.41 113.874
L211.895 116.721
L208.481 119.688
L205.172 122.774
L201.974 125.972
L198.888 129.281
L195.921 132.695
L193.074 136.21
L190.351 139.823
L187.757 143.529
L185.293 147.322
L182.963 151.2
L180.77 155.156
L178.716 159.187
L176.805 163.287
L175.037 167.451
L173.416 171.674
L171.943 175.951
L170.62 180.277
L169.45 184.647
L168.432 189.055
L167.569 193.495
L166.861 197.963
L166.31 202.453
L165.916 206.96
L165.679 211.477
L165.6 216
L165.6 216" style="fill:none;stroke:#000000;stroke-dasharray:1.000000,3.000000;stroke-dashoffset:0.0;stroke-width:0.5;"/>
     </g>
     <g id="text_11">
      <!-- 15 -->
      <g transform="translate(175.465212587 263.100147835)scale(0.12 -0.12)">
       <use xlink:href="#BitstreamVeraSans-Roman-31"/>
       <use x="63.623046875" xlink:href="#BitstreamVeraSans-Roman-35"/>
      </g>
     </g>
    </g>
    <g id="ytick_4">
     <g id="line2d_14">
      <path clip-path="url(#pbd74c3c836)" d="
M122.4 216
L122.505 222.031
L122.821 228.054
L123.347 234.063
L124.082 240.049
L125.025 246.006
L126.176 251.927
L127.533 257.804
L129.094 263.63
L130.857 269.398
L132.821 275.101
L134.983 280.732
L137.339 286.284
L139.888 291.751
L142.627 297.125
L145.551 302.4
L148.657 307.57
L151.942 312.629
L155.402 317.569
L159.032 322.386
L162.828 327.074
L166.785 331.626
L170.898 336.037
L175.163 340.302
L179.574 344.415
L184.126 348.372
L188.814 352.168
L193.631 355.798
L198.571 359.258
L203.63 362.543
L208.8 365.649
L214.075 368.573
L219.449 371.312
L224.916 373.861
L230.468 376.217
L236.099 378.379
L241.802 380.343
L247.57 382.106
L253.396 383.667
L259.273 385.024
L265.194 386.175
L271.151 387.118
L277.137 387.853
L283.146 388.379
L289.169 388.695
L295.2 388.8
L301.231 388.695
L307.254 388.379
L313.263 387.853
L319.249 387.118
L325.206 386.175
L331.127 385.024
L337.004 383.667
L342.83 382.106
L348.598 380.343
L354.301 378.379
L359.932 376.217
L365.484 373.861
L370.951 371.312
L376.325 368.573
L381.6 365.649
L386.77 362.543
L391.829 359.258
L396.769 355.798
L401.586 352.168
L406.274 348.372
L410.826 344.415
L415.237 340.302
L419.502 336.037
L423.615 331.626
L427.572 327.074
L431.368 322.386
L434.998 317.569
L438.458 312.629
L441.743 307.57
L444.849 302.4
L447.773 297.125
L450.512 291.751
L453.061 286.284
L455.417 280.732
L457.579 275.101
L459.543 269.398
L461.306 263.63
L462.867 257.804
L464.224 251.927
L465.375 246.006
L466.318 240.049
L467.053 234.063
L467.579 228.054
L467.895 222.031
L468 216
L467.895 209.969
L467.579 203.946
L467.053 197.937
L466.318 191.951
L465.375 185.994
L464.224 180.073
L462.867 174.196
L461.306 168.37
L459.543 162.602
L457.579 156.899
L455.417 151.268
L453.061 145.716
L450.512 140.249
L447.773 134.875
L444.849 129.6
L441.743 124.43
L438.458 119.371
L434.998 114.431
L431.368 109.614
L427.572 104.926
L423.615 100.374
L419.502 95.963
L415.237 91.6981
L410.826 87.5846
L406.274 83.6275
L401.586 79.8317
L396.769 76.2019
L391.829 72.7423
L386.77 69.4573
L381.6 66.3508
L376.325 63.4267
L370.951 60.6884
L365.484 58.1393
L359.932 55.7826
L354.301 53.6211
L348.598 51.6574
L342.83 49.894
L337.004 48.3329
L331.127 46.9761
L325.206 45.8252
L319.249 44.8817
L313.263 44.1466
L307.254 43.6209
L301.231 43.3053
L295.2 43.2
L289.169 43.3053
L283.146 43.6209
L277.137 44.1466
L271.151 44.8817
L265.194 45.8252
L259.273 46.9761
L253.396 48.3329
L247.57 49.894
L241.802 51.6574
L236.099 53.6211
L230.468 55.7826
L224.916 58.1393
L219.449 60.6884
L214.075 63.4267
L208.8 66.3508
L203.63 69.4573
L198.571 72.7423
L193.631 76.2019
L188.814 79.8317
L184.126 83.6275
L179.574 87.5846
L175.163 91.6981
L170.898 95.963
L166.785 100.374
L162.828 104.926
L159.032 109.614
L155.402 114.431
L151.942 119.371
L148.657 124.43
L145.551 129.6
L142.627 134.875
L139.888 140.249
L137.339 145.716
L134.983 151.268
L132.821 156.899
L130.857 162.602
L129.094 168.37
L127.533 174.196
L126.176 180.073
L125.025 185.994
L124.082 191.951
L123.347 197.937
L122.821 203.946
L122.505 209.969
L122.4 216
L122.4 216" style="fill:none;stroke:#000000;stroke-dasharray:1.000000,3.000000;stroke-dashoffset:0.0;stroke-width:0.5;"/>
     </g>
     <g id="text_12">
      <!-- 20 -->
      <g transform="translate(135.553616782 279.632072113)scale(0.12 -0.12)">
       <use xlink:href="#BitstreamVeraSans-Roman-32"/>
       <use x="63.623046875" xlink:href="#BitstreamVeraSans-Roman-30"/>
      </g>
     </g>
    </g>
   </g>
   <g id="patch_3">
    <path d="
M295.2 388.8
C341.027 388.8 384.983 370.593 417.388 338.188
C449.793 305.783 468 261.827 468 216
C468 170.173 449.793 126.217 417.388 93.8119
C384.983 61.4073 341.027 43.2 295.2 43.2
C249.373 43.2 205.417 61.4073 173.012 93.8119
C140.607 126.217 122.4 170.173 122.4 216
C122.4 261.827 140.607 305.783 173.012 338.188
C205.417 370.593 249.373 388.8 295.2 388.8
z
" style="fill:none;stroke:#000000;"/>
   </g>
   <g id="text_13">
    <!-- Log[S1](blue) &amp; Log[S2](orange) vs Angle, n- (1.6+0.01j) x-4.83 -->
    <defs>
     <path id="BitstreamVeraSans-Roman-20"/>
     <path d="
M8.59375 75.9844
L29.2969 75.9844
L29.2969 69
L17.5781 69
L17.5781 -6.20312
L29.2969 -6.20312
L29.2969 -13.1875
L8.59375 -13.1875
z
" id="BitstreamVeraSans-Roman-5b"/>
     <path d="
M30.4219 75.9844
L30.4219 -13.1875
L9.71875 -13.1875
L9.71875 -6.20312
L21.3906 -6.20312
L21.3906 69
L9.71875 69
L9.71875 75.9844
z
" id="BitstreamVeraSans-Roman-5d"/>
     <path d="
M24.3125 39.2031
Q19.875 35.25 17.7969 31.3125
Q15.7188 27.3906 15.7188 23.0938
Q15.7188 15.9688 20.8906 11.2344
Q26.0781 6.5 33.8906 6.5
Q38.5312 6.5 42.5781 8.03125
Q46.625 9.57812 50.2031 12.7031
z

M31.2031 44.6719
L56 19.2812
Q58.8906 23.6406 60.5 28.5938
Q62.1094 33.5469 62.4062 39.1094
L71.4844 39.1094
Q70.9062 32.6719 68.3594 26.3594
Q65.8281 20.0625 61.2812 13.9219
L74.9062 0
L62.5938 0
L55.6094 7.17188
Q50.5312 2.82812 44.9688 0.703125
Q39.4062 -1.42188 33.0156 -1.42188
Q21.2344 -1.42188 13.7656 5.29688
Q6.29688 12.0156 6.29688 22.5156
Q6.29688 28.7656 9.5625 34.25
Q12.8438 39.75 19.3906 44.5781
Q17.0469 47.6562 15.8125 50.7031
Q14.5938 53.7656 14.5938 56.6875
Q14.5938 64.5938 20.0156 69.4062
Q25.4375 74.2188 34.4219 74.2188
Q38.4844 74.2188 42.5 73.3438
Q46.5312 72.4688 50.6875 70.7031
L50.6875 61.8125
Q46.4375 64.1094 42.5781 65.2969
Q38.7188 66.5 35.4062 66.5
Q30.2812 66.5 27.0781 63.7812
Q23.875 61.0781 23.875 56.7812
Q23.875 54.2969 25.3125 51.7812
Q26.7656 49.2656 31.2031 44.6719" id="BitstreamVeraSans-Roman-26"/>
     <path d="
M8.01562 75.875
L15.8281 75.875
Q23.1406 64.3594 26.7812 53.3125
Q30.4219 42.2812 30.4219 31.3906
Q30.4219 20.4531 26.7812 9.375
Q23.1406 -1.70312 15.8281 -13.1875
L8.01562 -13.1875
Q14.5 -2 17.7031 9.0625
Q20.9062 20.125 20.9062 31.3906
Q20.9062 42.6719 17.7031 53.6562
Q14.5 64.6562 8.01562 75.875" id="BitstreamVeraSans-Roman-29"/>
     <path d="
M31 75.875
Q24.4688 64.6562 21.2812 53.6562
Q18.1094 42.6719 18.1094 31.3906
Q18.1094 20.125 21.3125 9.0625
Q24.5156 -2 31 -13.1875
L23.1875 -13.1875
Q15.875 -1.70312 12.2344 9.375
Q8.59375 20.4531 8.59375 31.3906
Q8.59375 42.2812 12.2031 53.3125
Q15.8281 64.3594 23.1875 75.875
z
" id="BitstreamVeraSans-Roman-28"/>
     <path d="
M34.1875 63.1875
L20.7969 26.9062
L47.6094 26.9062
z

M28.6094 72.9062
L39.7969 72.9062
L67.5781 0
L57.3281 0
L50.6875 18.7031
L17.8281 18.7031
L11.1875 0
L0.78125 0
z
" id="BitstreamVeraSans-Roman-41"/>
     <path d="
M56.2031 29.5938
L56.2031 25.2031
L14.8906 25.2031
Q15.4844 15.9219 20.4844 11.0625
Q25.4844 6.20312 34.4219 6.20312
Q39.5938 6.20312 44.4531 7.46875
Q49.3125 8.73438 54.1094 11.2812
L54.1094 2.78125
Q49.2656 0.734375 44.1875 -0.34375
Q39.1094 -1.42188 33.8906 -1.42188
Q20.7969 -1.42188 13.1562 6.1875
Q5.51562 13.8125 5.51562 26.8125
Q5.51562 40.2344 12.7656 48.1094
Q20.0156 56 32.3281 56
Q43.3594 56 49.7812 48.8906
Q56.2031 41.7969 56.2031 29.5938
M47.2188 32.2344
Q47.125 39.5938 43.0938 43.9844
Q39.0625 48.3906 32.4219 48.3906
Q24.9062 48.3906 20.3906 44.1406
Q15.875 39.8906 15.1875 32.1719
z
" id="BitstreamVeraSans-Roman-65"/>
     <path d="
M33.0156 40.375
Q26.375 40.375 22.4844 35.8281
Q18.6094 31.2969 18.6094 23.3906
Q18.6094 15.5312 22.4844 10.9531
Q26.375 6.39062 33.0156 6.39062
Q39.6562 6.39062 43.5312 10.9531
Q47.4062 15.5312 47.4062 23.3906
Q47.4062 31.2969 43.5312 35.8281
Q39.6562 40.375 33.0156 40.375
M52.5938 71.2969
L52.5938 62.3125
Q48.875 64.0625 45.0938 64.9844
Q41.3125 65.9219 37.5938 65.9219
Q27.8281 65.9219 22.6719 59.3281
Q17.5312 52.7344 16.7969 39.4062
Q19.6719 43.6562 24.0156 45.9219
Q28.375 48.1875 33.5938 48.1875
Q44.5781 48.1875 50.9531 41.5156
Q57.3281 34.8594 57.3281 23.3906
Q57.3281 12.1562 50.6875 5.35938
Q44.0469 -1.42188 33.0156 -1.42188
Q20.3594 -1.42188 13.6719 8.26562
Q6.98438 17.9688 6.98438 36.375
Q6.98438 53.6562 15.1875 63.9375
Q23.3906 74.2188 37.2031 74.2188
Q40.9219 74.2188 44.7031 73.4844
Q48.4844 72.75 52.5938 71.2969" id="BitstreamVeraSans-Roman-36"/>
     <path d="
M45.4062 27.9844
Q45.4062 37.75 41.375 43.1094
Q37.3594 48.4844 30.0781 48.4844
Q22.8594 48.4844 18.8281 43.1094
Q14.7969 37.75 14.7969 27.9844
Q14.7969 18.2656 18.8281 12.8906
Q22.8594 7.51562 30.0781 7.51562
Q37.3594 7.51562 41.375 12.8906
Q45.4062 18.2656 45.4062 27.9844
M54.3906 6.78125
Q54.3906 -7.17188 48.1875 -13.9844
Q42 -20.7969 29.2031 -20.7969
Q24.4688 -20.7969 20.2656 -20.0938
Q16.0625 -19.3906 12.1094 -17.9219
L12.1094 -9.1875
Q16.0625 -11.3281 19.9219 -12.3438
Q23.7812 -13.375 27.7812 -13.375
Q36.625 -13.375 41.0156 -8.76562
Q45.4062 -4.15625 45.4062 5.17188
L45.4062 9.625
Q42.625 4.78125 38.2812 2.39062
Q33.9375 0 27.875 0
Q17.8281 0 11.6719 7.65625
Q5.51562 15.3281 5.51562 27.9844
Q5.51562 40.6719 11.6719 48.3281
Q17.8281 56 27.875 56
Q33.9375 56 38.2812 53.6094
Q42.625 51.2188 45.4062 46.3906
L45.4062 54.6875
L54.3906 54.6875
z
" id="BitstreamVeraSans-Roman-67"/>
     <path d="
M34.2812 27.4844
Q23.3906 27.4844 19.1875 25
Q14.9844 22.5156 14.9844 16.5
Q14.9844 11.7188 18.1406 8.90625
Q21.2969 6.10938 26.7031 6.10938
Q34.1875 6.10938 38.7031 11.4062
Q43.2188 16.7031 43.2188 25.4844
L43.2188 27.4844
z

M52.2031 31.2031
L52.2031 0
L43.2188 0
L43.2188 8.29688
Q40.1406 3.32812 35.5469 0.953125
Q30.9531 -1.42188 24.3125 -1.42188
Q15.9219 -1.42188 10.9531 3.29688
Q6 8.01562 6 15.9219
Q6 25.1406 12.1719 29.8281
Q18.3594 34.5156 30.6094 34.5156
L43.2188 34.5156
L43.2188 35.4062
Q43.2188 41.6094 39.1406 45
Q35.0625 48.3906 27.6875 48.3906
Q23 48.3906 18.5469 47.2656
Q14.1094 46.1406 10.0156 43.8906
L10.0156 52.2031
Q14.9375 54.1094 19.5781 55.0469
Q24.2188 56 28.6094 56
Q40.4844 56 46.3438 49.8438
Q52.2031 43.7031 52.2031 31.2031" id="BitstreamVeraSans-Roman-61"/>
     <path d="
M48.6875 27.2969
Q48.6875 37.2031 44.6094 42.8438
Q40.5312 48.4844 33.4062 48.4844
Q26.2656 48.4844 22.1875 42.8438
Q18.1094 37.2031 18.1094 27.2969
Q18.1094 17.3906 22.1875 11.75
Q26.2656 6.10938 33.4062 6.10938
Q40.5312 6.10938 44.6094 11.75
Q48.6875 17.3906 48.6875 27.2969
M18.1094 46.3906
Q20.9531 51.2656 25.2656 53.625
Q29.5938 56 35.5938 56
Q45.5625 56 51.7812 48.0938
Q58.0156 40.1875 58.0156 27.2969
Q58.0156 14.4062 51.7812 6.48438
Q45.5625 -1.42188 35.5938 -1.42188
Q29.5938 -1.42188 25.2656 0.953125
Q20.9531 3.32812 18.1094 8.20312
L18.1094 0
L9.07812 0
L9.07812 75.9844
L18.1094 75.9844
z
" id="BitstreamVeraSans-Roman-62"/>
     <path d="
M9.8125 72.9062
L19.6719 72.9062
L19.6719 8.29688
L55.1719 8.29688
L55.1719 0
L9.8125 0
z
" id="BitstreamVeraSans-Roman-4c"/>
     <path d="
M54.8906 33.0156
L54.8906 0
L45.9062 0
L45.9062 32.7188
Q45.9062 40.4844 42.875 44.3281
Q39.8438 48.1875 33.7969 48.1875
Q26.5156 48.1875 22.3125 43.5469
Q18.1094 38.9219 18.1094 30.9062
L18.1094 0
L9.07812 0
L9.07812 54.6875
L18.1094 54.6875
L18.1094 46.1875
Q21.3438 51.125 25.7031 53.5625
Q30.0781 56 35.7969 56
Q45.2188 56 50.0469 50.1719
Q54.8906 44.3438 54.8906 33.0156" id="BitstreamVeraSans-Roman-6e"/>
     <path d="
M30.6094 48.3906
Q23.3906 48.3906 19.1875 42.75
Q14.9844 37.1094 14.9844 27.2969
Q14.9844 17.4844 19.1562 11.8438
Q23.3438 6.20312 30.6094 6.20312
Q37.7969 6.20312 41.9844 11.8594
Q46.1875 17.5312 46.1875 27.2969
Q46.1875 37.0156 41.9844 42.7031
Q37.7969 48.3906 30.6094 48.3906
M30.6094 56
Q42.3281 56 49.0156 48.375
Q55.7188 40.7656 55.7188 27.2969
Q55.7188 13.875 49.0156 6.21875
Q42.3281 -1.42188 30.6094 -1.42188
Q18.8438 -1.42188 12.1719 6.21875
Q5.51562 13.875 5.51562 27.2969
Q5.51562 40.7656 12.1719 48.375
Q18.8438 56 30.6094 56" id="BitstreamVeraSans-Roman-6f"/>
     <path d="
M9.42188 54.6875
L18.4062 54.6875
L18.4062 -0.984375
Q18.4062 -11.4219 14.4219 -16.1094
Q10.4531 -20.7969 1.60938 -20.7969
L-1.8125 -20.7969
L-1.8125 -13.1875
L0.59375 -13.1875
Q5.71875 -13.1875 7.5625 -10.8125
Q9.42188 -8.45312 9.42188 -0.984375
z

M9.42188 75.9844
L18.4062 75.9844
L18.4062 64.5938
L9.42188 64.5938
z
" id="BitstreamVeraSans-Roman-6a"/>
     <path d="
M9.42188 75.9844
L18.4062 75.9844
L18.4062 0
L9.42188 0
z
" id="BitstreamVeraSans-Roman-6c"/>
     <path d="
M11.7188 12.4062
L22.0156 12.4062
L22.0156 4
L14.0156 -11.625
L7.71875 -11.625
L11.7188 4
z
" id="BitstreamVeraSans-Roman-2c"/>
     <path d="
M53.5156 70.5156
L53.5156 60.8906
Q47.9062 63.5781 42.9219 64.8906
Q37.9375 66.2188 33.2969 66.2188
Q25.25 66.2188 20.875 63.0938
Q16.5 59.9688 16.5 54.2031
Q16.5 49.3594 19.4062 46.8906
Q22.3125 44.4375 30.4219 42.9219
L36.375 41.7031
Q47.4062 39.5938 52.6562 34.2969
Q57.9062 29 57.9062 20.125
Q57.9062 9.51562 50.7969 4.04688
Q43.7031 -1.42188 29.9844 -1.42188
Q24.8125 -1.42188 18.9688 -0.25
Q13.1406 0.921875 6.89062 3.21875
L6.89062 13.375
Q12.8906 10.0156 18.6562 8.29688
Q24.4219 6.59375 29.9844 6.59375
Q38.4219 6.59375 43.0156 9.90625
Q47.6094 13.2344 47.6094 19.3906
Q47.6094 24.75 44.3125 27.7812
Q41.0156 30.8125 33.5 32.3281
L27.4844 33.5
Q16.4531 35.6875 11.5156 40.375
Q6.59375 45.0625 6.59375 53.4219
Q6.59375 63.0938 13.4062 68.6562
Q20.2188 74.2188 32.1719 74.2188
Q37.3125 74.2188 42.625 73.2812
Q47.9531 72.3594 53.5156 70.5156" id="BitstreamVeraSans-Roman-53"/>
     <path d="
M10.6875 12.4062
L21 12.4062
L21 0
L10.6875 0
z
" id="BitstreamVeraSans-Roman-2e"/>
     <path d="
M4.89062 31.3906
L31.2031 31.3906
L31.2031 23.3906
L4.89062 23.3906
z
" id="BitstreamVeraSans-Roman-2d"/>
     <path d="
M54.8906 54.6875
L35.1094 28.0781
L55.9062 0
L45.3125 0
L29.3906 21.4844
L13.4844 0
L2.875 0
L24.125 28.6094
L4.6875 54.6875
L15.2812 54.6875
L29.7812 35.2031
L44.2812 54.6875
z
" id="BitstreamVeraSans-Roman-78"/>
     <path d="
M2.98438 54.6875
L12.5 54.6875
L29.5938 8.79688
L46.6875 54.6875
L56.2031 54.6875
L35.6875 0
L23.4844 0
z
" id="BitstreamVeraSans-Roman-76"/>
     <path d="
M8.5 21.5781
L8.5 54.6875
L17.4844 54.6875
L17.4844 21.9219
Q17.4844 14.1562 20.5 10.2656
Q23.5312 6.39062 29.5938 6.39062
Q36.8594 6.39062 41.0781 11.0312
Q45.3125 15.6719 45.3125 23.6875
L45.3125 54.6875
L54.2969 54.6875
L54.2969 0
L45.3125 0
L45.3125 8.40625
Q42.0469 3.42188 37.7188 1
Q33.4062 -1.42188 27.6875 -1.42188
Q18.2656 -1.42188 13.375 4.4375
Q8.5 10.2969 8.5 21.5781" id="BitstreamVeraSans-Roman-75"/>
     <path d="
M41.1094 46.2969
Q39.5938 47.1719 37.8125 47.5781
Q36.0312 48 33.8906 48
Q26.2656 48 22.1875 43.0469
Q18.1094 38.0938 18.1094 28.8125
L18.1094 0
L9.07812 0
L9.07812 54.6875
L18.1094 54.6875
L18.1094 46.1875
Q20.9531 51.1719 25.4844 53.5781
Q30.0312 56 36.5312 56
Q37.4531 56 38.5781 55.875
Q39.7031 55.7656 41.0625 55.5156
z
" id="BitstreamVeraSans-Roman-72"/>
     <path d="
M44.2812 53.0781
L44.2812 44.5781
Q40.4844 46.5312 36.375 47.5
Q32.2812 48.4844 27.875 48.4844
Q21.1875 48.4844 17.8438 46.4375
Q14.5 44.3906 14.5 40.2812
Q14.5 37.1562 16.8906 35.375
Q19.2812 33.5938 26.5156 31.9844
L29.5938 31.2969
Q39.1562 29.25 43.1875 25.5156
Q47.2188 21.7812 47.2188 15.0938
Q47.2188 7.46875 41.1875 3.01562
Q35.1562 -1.42188 24.6094 -1.42188
Q20.2188 -1.42188 15.4531 -0.5625
Q10.6875 0.296875 5.42188 2
L5.42188 11.2812
Q10.4062 8.6875 15.2344 7.39062
Q20.0625 6.10938 24.8125 6.10938
Q31.1562 6.10938 34.5625 8.28125
Q37.9844 10.4531 37.9844 14.4062
Q37.9844 18.0625 35.5156 20.0156
Q33.0625 21.9688 24.7031 23.7812
L21.5781 24.5156
Q13.2344 26.2656 9.51562 29.9062
Q5.8125 33.5469 5.8125 39.8906
Q5.8125 47.6094 11.2812 51.7969
Q16.75 56 26.8125 56
Q31.7812 56 36.1719 55.2656
Q40.5781 54.5469 44.2812 53.0781" id="BitstreamVeraSans-Roman-73"/>
     <path d="
M46 62.7031
L46 35.5
L73.1875 35.5
L73.1875 27.2031
L46 27.2031
L46 0
L37.7969 0
L37.7969 27.2031
L10.5938 27.2031
L10.5938 35.5
L37.7969 35.5
L37.7969 62.7031
z
" id="BitstreamVeraSans-Roman-2b"/>
    </defs>
    <g transform="translate(135.17421875 11.9283125)scale(0.1 -0.1)">
     <use xlink:href="#BitstreamVeraSans-Roman-4c"/>
     <use x="53.962890625" xlink:href="#BitstreamVeraSans-Roman-6f"/>
     <use x="115.14453125" xlink:href="#BitstreamVeraSans-Roman-67"/>
     <use x="178.62109375" xlink:href="#BitstreamVeraSans-Roman-5b"/>
     <use x="217.634765625" xlink:href="#BitstreamVeraSans-Roman-53"/>
     <use x="281.111328125" xlink:href="#BitstreamVeraSans-Roman-31"/>
     <use x="344.734375" xlink:href="#BitstreamVeraSans-Roman-5d"/>
     <use x="383.748046875" xlink:href="#BitstreamVeraSans-Roman-28"/>
     <use x="422.76171875" xlink:href="#BitstreamVeraSans-Roman-62"/>
     <use x="486.23828125" xlink:href="#BitstreamVeraSans-Roman-6c"/>
     <use x="514.021484375" xlink:href="#BitstreamVeraSans-Roman-75"/>
     <use x="577.400390625" xlink:href="#BitstreamVeraSans-Roman-65"/>
     <use x="638.923828125" xlink:href="#BitstreamVeraSans-Roman-29"/>
     <use x="677.9375" xlink:href="#BitstreamVeraSans-Roman-20"/>
     <use x="709.724609375" xlink:href="#BitstreamVeraSans-Roman-26"/>
     <use x="787.703125" xlink:href="#BitstreamVeraSans-Roman-20"/>
     <use x="819.490234375" xlink:href="#BitstreamVeraSans-Roman-4c"/>
     <use x="873.453125" xlink:href="#BitstreamVeraSans-Roman-6f"/>
     <use x="934.634765625" xlink:href="#BitstreamVeraSans-Roman-67"/>
     <use x="998.111328125" xlink:href="#BitstreamVeraSans-Roman-5b"/>
     <use x="1037.125" xlink:href="#BitstreamVeraSans-Roman-53"/>
     <use x="1100.6015625" xlink:href="#BitstreamVeraSans-Roman-32"/>
     <use x="1164.22460938" xlink:href="#BitstreamVeraSans-Roman-5d"/>
     <use x="1203.23828125" xlink:href="#BitstreamVeraSans-Roman-28"/>
     <use x="1242.25195312" xlink:href="#BitstreamVeraSans-Roman-6f"/>
     <use x="1303.43359375" xlink:href="#BitstreamVeraSans-Roman-72"/>
     <use x="1344.546875" xlink:href="#BitstreamVeraSans-Roman-61"/>
     <use x="1405.82617188" xlink:href="#BitstreamVeraSans-Roman-6e"/>
     <use x="1469.20507812" xlink:href="#BitstreamVeraSans-Roman-67"/>
     <use x="1532.68164062" xlink:href="#BitstreamVeraSans-Roman-65"/>
     <use x="1594.20507812" xlink:href="#BitstreamVeraSans-Roman-29"/>
     <use x="1633.21875" xlink:href="#BitstreamVeraSans-Roman-20"/>
     <use x="1665.00585938" xlink:href="#BitstreamVeraSans-Roman-76"/>
     <use x="1724.18554688" xlink:href="#BitstreamVeraSans-Roman-73"/>
     <use x="1776.28515625" xlink:href="#BitstreamVeraSans-Roman-20"/>
     <use x="1808.07226562" xlink:href="#BitstreamVeraSans-Roman-41"/>
     <use x="1876.48046875" xlink:href="#BitstreamVeraSans-Roman-6e"/>
     <use x="1939.859375" xlink:href="#BitstreamVeraSans-Roman-67"/>
     <use x="2003.3359375" xlink:href="#BitstreamVeraSans-Roman-6c"/>
     <use x="2031.11914062" xlink:href="#BitstreamVeraSans-Roman-65"/>
     <use x="2092.64257812" xlink:href="#BitstreamVeraSans-Roman-2c"/>
     <use x="2124.4296875" xlink:href="#BitstreamVeraSans-Roman-20"/>
     <use x="2156.21679688" xlink:href="#BitstreamVeraSans-Roman-6e"/>
     <use x="2219.59570312" xlink:href="#BitstreamVeraSans-Roman-2d"/>
     <use x="2255.6796875" xlink:href="#BitstreamVeraSans-Roman-20"/>
     <use x="2287.46679688" xlink:href="#BitstreamVeraSans-Roman-28"/>
     <use x="2326.48046875" xlink:href="#BitstreamVeraSans-Roman-31"/>
     <use x="2390.10351562" xlink:href="#BitstreamVeraSans-Roman-2e"/>
     <use x="2421.890625" xlink:href="#BitstreamVeraSans-Roman-36"/>
     <use x="2485.51367188" xlink:href="#BitstreamVeraSans-Roman-2b"/>
     <use x="2569.30273438" xlink:href="#BitstreamVeraSans-Roman-30"/>
     <use x="2632.92578125" xlink:href="#BitstreamVeraSans-Roman-2e"/>
     <use x="2664.71289062" xlink:href="#BitstreamVeraSans-Roman-30"/>
     <use x="2728.3359375" xlink:href="#BitstreamVeraSans-Roman-31"/>
     <use x="2791.95898438" xlink:href="#BitstreamVeraSans-Roman-6a"/>
     <use x="2819.7421875" xlink:href="#BitstreamVeraSans-Roman-29"/>
     <use x="2858.75585938" xlink:href="#BitstreamVeraSans-Roman-20"/>
     <use x="2890.54296875" xlink:href="#BitstreamVeraSans-Roman-78"/>
     <use x="2949.72265625" xlink:href="#BitstreamVeraSans-Roman-2d"/>
     <use x="2985.80664062" xlink:href="#BitstreamVeraSans-Roman-34"/>
     <use x="3049.4296875" xlink:href="#BitstreamVeraSans-Roman-2e"/>
     <use x="3081.21679688" xlink:href="#BitstreamVeraSans-Roman-38"/>
     <use x="3144.83984375" xlink:href="#BitstreamVeraSans-Roman-33"/>
    </g>
   </g>
  </g>
 </g>
 <defs>
  <clipPath id="pbd74c3c836">
   <path d="
M295.2 388.8
C341.027 388.8 384.983 370.593 417.388 338.188
C449.793 305.783 468 261.827 468 216
C468 170.173 449.793 126.217 417.388 93.8119
C384.983 61.4073 341.027 43.2 295.2 43.2
C249.373 43.2 205.417 61.4073 173.012 93.8119
C140.607 126.217 122.4 170.173 122.4 216
C122.4 261.827 140.607 305.783 173.012 338.188
C205.417 370.593 249.373 388.8 295.2 388.8
z
"/>
  </clipPath>
 </defs>
</svg>
