<?xml version="1.0" encoding="utf-8" standalone="no"?>
<!DOCTYPE svg PUBLIC "-//W3C//DTD SVG 1.1//EN"
  "http://www.w3.org/Graphics/SVG/1.1/DTD/svg11.dtd">
<!-- Created with matplotlib (http://matplotlib.org/) -->
<svg height="432pt" version="1.1" viewBox="0 0 576 432" width="576pt" xmlns="http://www.w3.org/2000/svg" xmlns:xlink="http://www.w3.org/1999/xlink">
 <defs>
  <style type="text/css">
*{stroke-linecap:butt;stroke-linejoin:round;}
  </style>
 </defs>
 <g id="figure_1">
  <g id="patch_1">
   <path d="
M0 432
L576 432
L576 0
L0 0
z
" style="fill:#ffffff;"/>
  </g>
  <g id="axes_1">
   <g id="patch_2">
    <path d="
M295.2 181.44
C313.531 181.44 331.113 174.157 344.075 161.195
C357.037 148.233 364.32 130.651 364.32 112.32
C364.32 93.9892 357.037 76.4066 344.075 63.4448
C331.113 50.4829 313.531 43.2 295.2 43.2
C276.869 43.2 259.287 50.4829 246.325 63.4448
C233.363 76.4066 226.08 93.9892 226.08 112.32
C226.08 130.651 233.363 148.233 246.325 161.195
C259.287 174.157 276.869 181.44 295.2 181.44
z
" style="fill:#ffffff;"/>
   </g>
   <g id="line2d_1">
    <path clip-path="url(#p38c0cf76b6)" d="
M242.761 112.32
L242.878 113.966
L243.228 115.593
L243.813 117.182
L244.637 118.714
L245.588 120.026
L246.74 121.258
L248.103 122.393
L249.684 123.41
L251.498 124.288
L253.317 124.931
L255.349 125.421
L257.612 125.734
L260.133 125.838
L262.576 125.728
L265.264 125.401
L268.219 124.824
L271.439 123.974
L275.334 122.691
L281.342 120.585
L281.353 120.696
L280.952 121.186
L275.274 126.913
L273.957 128.714
L273.066 130.308
L272.545 131.697
L272.343 132.888
L272.413 133.886
L272.67 134.604
L273.088 135.175
L273.651 135.597
L274.346 135.865
L275.288 135.975
L276.374 135.862
L277.592 135.511
L278.936 134.899
L280.398 133.999
L281.975 132.777
L283.664 131.189
L285.463 129.185
L287.365 126.716
L289.34 123.763
L291.286 120.462
L293.74 115.824
L293.489 116.696
L292.291 120.763
L291.62 123.881
L291.343 126.149
L291.33 127.882
L291.524 129.12
L291.826 129.84
L292.216 130.227
L292.609 130.304
L293.031 130.145
L293.53 129.676
L294.025 128.902
L294.548 127.659
L295.006 126.012
L295.397 123.703
L295.619 120.916
L295.64 117.795
L295.431 114.272
L295.224 112.467
L295.47 113.652
L296.17 116.22
L296.905 118.147
L297.461 119.09
L297.722 119.215
L297.791 119.01
L297.716 118.362
L297.339 117.071
L296.416 114.809
L295.323 112.558
M295.284 112.429
L298.207 116.033
L300.606 118.661
L302.866 120.812
L304.766 122.333
L306.526 123.452
L307.953 124.089
L308.963 124.318
L309.714 124.267
L310.159 124.014
L310.367 123.649
L310.399 123.16
L310.208 122.464
L309.687 121.525
L308.833 120.45
L307.52 119.152
L305.521 117.503
L304.21 116.359
L304.29 116.258
L304.764 116.286
L307.342 116.826
L310.912 117.485
L313.906 117.824
L316.642 117.903
L319.041 117.733
L321.089 117.348
L322.795 116.784
L324.05 116.153
L325.05 115.429
L325.802 114.634
L326.313 113.789
L326.587 112.912
L326.639 112.32
L242.762 112.32
L242.897 110.675
L243.265 109.049
L243.869 107.463
L244.713 105.936
L245.681 104.629
L246.853 103.403
L248.236 102.276
L249.839 101.268
L251.676 100.401
L253.52 99.7703
L255.578 99.2942
L257.871 98.9986
L260.426 98.915
L262.902 99.0458
L265.628 99.3983
L268.624 100.004
L271.882 100.883
L275.788 102.186
L281.316 104.099
L281.327 103.987
L280.924 103.499
L275.228 97.7902
L273.905 95.9932
L273.009 94.4021
L272.485 93.0148
L272.278 91.8244
L272.345 90.8256
L272.6 90.1072
L273.016 89.5349
L273.578 89.1113
L274.272 88.8409
L275.214 88.7281
L276.3 88.837
L277.52 89.1845
L278.865 89.7922
L280.33 90.6875
L281.91 91.905
L283.604 93.4874
L285.41 95.4853
L287.32 97.9491
L289.304 100.895
L291.26 104.191
L293.729 108.821
L293.476 107.949
L292.265 103.887
L291.583 100.771
L291.299 98.5028
L291.281 96.7701
L291.471 95.5314
L291.771 94.8103
L292.16 94.4225
L292.552 94.3439
L292.975 94.5021
L293.476 94.969
L293.973 95.7421
L294.5 96.9836
L294.963 98.6284
L295.361 100.936
L295.592 103.723
L295.623 106.843
L295.425 110.367
L295.223 112.173
L295.465 110.987
L296.158 108.417
L296.886 106.487
L297.44 105.543
L297.7 105.417
L297.77 105.622
L297.697 106.27
L297.324 107.562
L296.408 109.827
L295.322 112.081
M295.283 112.211
L298.196 108.598
L300.586 105.962
L302.839 103.804
L304.735 102.277
L306.491 101.152
L307.916 100.511
L308.925 100.279
L309.677 100.327
L310.122 100.579
L310.331 100.944
L310.365 101.433
L310.176 102.129
L309.658 103.069
L308.807 104.147
L307.499 105.45
L305.505 107.104
L304.197 108.253
L304.278 108.353
L304.751 108.324
L307.327 107.776
L310.896 107.105
L313.889 106.757
L316.624 106.67
L319.023 106.832
L321.073 107.211
L322.781 107.769
L324.038 108.396
L325.04 109.117
L325.795 109.91
L326.309 110.753
L326.585 111.629
L326.639 112.221
L326.639 112.221" style="fill:none;stroke:#0000ff;stroke-linecap:square;"/>
   </g>
   <g id="line2d_2">
    <path clip-path="url(#p38c0cf76b6)" d="
M242.761 112.32
L242.879 114.131
L243.23 115.921
L243.816 117.672
L244.634 119.362
L245.683 120.971
L246.836 122.346
L248.177 123.621
L249.701 124.78
L251.404 125.808
L253.279 126.688
L255.314 127.408
L257.492 127.956
L260.02 128.356
L262.866 128.559
L266.139 128.554
L271.238 128.516
L272.327 128.741
L273.035 129.094
L273.606 129.644
L274.157 130.549
L275.357 132.701
L276.138 133.571
L277.001 134.217
L278.069 134.737
L279.331 135.098
L280.853 135.296
L282.689 135.306
L284.774 135.097
L286.612 134.704
L288.138 134.149
L289.456 133.425
L290.649 132.509
L291.783 131.351
L292.893 129.894
L294.362 127.537
L295.133 126.5
L295.529 126.276
L295.883 126.314
L296.35 126.635
L297.37 127.726
L298.476 128.772
L299.304 129.281
L300.045 129.483
L300.672 129.416
L301.173 129.141
L301.59 128.667
L301.933 127.929
L302.152 126.898
L302.201 125.477
L302.013 123.464
L301.913 121.891
L302.083 121.565
L302.352 121.499
L302.884 121.626
L304.456 122.318
L306.588 123.166
L308.196 123.577
L309.704 123.733
L311.096 123.657
L312.659 123.337
L315.01 122.583
L319.006 121.07
L321.122 120.036
L322.714 119.024
L324.035 117.92
L325.062 116.766
L325.802 115.605
L326.317 114.378
L326.58 113.208
L326.639 112.32
L242.762 112.32
L242.895 110.51
L243.262 108.721
L243.863 106.973
L244.697 105.287
L245.656 103.825
L246.805 102.446
L248.141 101.167
L249.662 100.003
L251.362 98.97
L253.234 98.0836
L255.267 97.3574
L257.443 96.8023
L259.97 96.395
L262.815 96.1831
L266.088 96.177
L271.187 96.1997
L272.275 95.9706
L272.982 95.6159
L273.552 95.0642
L274.099 94.1572
L275.293 92.0017
L276.071 91.129
L276.933 90.4801
L277.998 89.9571
L279.259 89.5921
L280.781 89.3895
L282.617 89.3736
L284.703 89.5754
L286.541 89.9634
L288.069 90.5132
L289.39 91.2332
L290.586 92.1459
L291.723 93.2999
L292.838 94.7538
L294.314 97.106
L295.089 98.1406
L295.485 98.3635
L295.839 98.3239
L296.305 98.0011
L297.322 96.9077
L298.424 95.8577
L299.251 95.3463
L299.991 95.1422
L300.618 95.2069
L301.12 95.48
L301.539 95.9529
L301.884 96.6898
L302.106 97.7205
L302.159 99.1415
L301.978 101.155
L301.883 102.727
L302.053 103.053
L302.324 103.119
L302.855 102.99
L304.424 102.293
L306.554 101.438
L308.16 101.022
L309.668 100.861
L311.061 100.933
L312.624 101.248
L314.978 101.995
L318.979 103.496
L321.098 104.522
L322.693 105.529
L324.017 106.629
L325.047 107.78
L325.792 108.939
L326.311 110.164
L326.577 111.333
L326.639 112.221
L326.639 112.221" style="fill:none;stroke:#ffa500;stroke-linecap:square;"/>
   </g>
   <g id="matplotlib.axis_1">
    <g id="xtick_1">
     <g id="line2d_3">
      <path clip-path="url(#p38c0cf76b6)" d="
M295.2 112.32
L226.08 112.32" style="fill:none;stroke:#000000;stroke-dasharray:1.000000,3.000000;stroke-dashoffset:0.0;stroke-width:0.5;"/>
     </g>
     <g id="text_1">
      <!-- 0° -->
      <defs>
       <path d="
M25 67.9219
Q21.0938 67.9219 18.4062 65.2031
Q15.7188 62.5 15.7188 58.5938
Q15.7188 54.7344 18.4062 52.0781
Q21.0938 49.4219 25 49.4219
Q28.9062 49.4219 31.5938 52.0781
Q34.2812 54.7344 34.2812 58.5938
Q34.2812 62.4531 31.5625 65.1875
Q28.8594 67.9219 25 67.9219
M25 74.2188
Q28.125 74.2188 31 73.0156
Q33.8906 71.8281 35.9844 69.5781
Q38.2344 67.3906 39.3594 64.5938
Q40.4844 61.8125 40.4844 58.5938
Q40.4844 52.1562 35.9688 47.6875
Q31.4531 43.2188 24.9062 43.2188
Q18.3125 43.2188 13.9062 47.6094
Q9.51562 52 9.51562 58.5938
Q9.51562 65.1406 14 69.6719
Q18.5 74.2188 25 74.2188" id="BitstreamVeraSans-Roman-b0"/>
       <path d="
M31.7812 66.4062
Q24.1719 66.4062 20.3281 58.9062
Q16.5 51.4219 16.5 36.375
Q16.5 21.3906 20.3281 13.8906
Q24.1719 6.39062 31.7812 6.39062
Q39.4531 6.39062 43.2812 13.8906
Q47.125 21.3906 47.125 36.375
Q47.125 51.4219 43.2812 58.9062
Q39.4531 66.4062 31.7812 66.4062
M31.7812 74.2188
Q44.0469 74.2188 50.5156 64.5156
Q56.9844 54.8281 56.9844 36.375
Q56.9844 17.9688 50.5156 8.26562
Q44.0469 -1.42188 31.7812 -1.42188
Q19.5312 -1.42188 13.0625 8.26562
Q6.59375 17.9688 6.59375 36.375
Q6.59375 54.8281 13.0625 64.5156
Q19.5312 74.2188 31.7812 74.2188" id="BitstreamVeraSans-Roman-30"/>
      </defs>
      <g transform="translate(213.3170625 115.63125)scale(0.12 -0.12)">
       <use xlink:href="#BitstreamVeraSans-Roman-30"/>
       <use x="63.623046875" xlink:href="#BitstreamVeraSans-Roman-b0"/>
      </g>
     </g>
    </g>
    <g id="xtick_2">
     <g id="line2d_4">
      <path clip-path="url(#p38c0cf76b6)" d="
M295.2 112.32
L246.325 161.195" style="fill:none;stroke:#000000;stroke-dasharray:1.000000,3.000000;stroke-dashoffset:0.0;stroke-width:0.5;"/>
     </g>
     <g id="text_2">
      <!-- 45° -->
      <defs>
       <path d="
M37.7969 64.3125
L12.8906 25.3906
L37.7969 25.3906
z

M35.2031 72.9062
L47.6094 72.9062
L47.6094 25.3906
L58.0156 25.3906
L58.0156 17.1875
L47.6094 17.1875
L47.6094 0
L37.7969 0
L37.7969 17.1875
L4.89062 17.1875
L4.89062 26.7031
z
" id="BitstreamVeraSans-Roman-34"/>
       <path d="
M10.7969 72.9062
L49.5156 72.9062
L49.5156 64.5938
L19.8281 64.5938
L19.8281 46.7344
Q21.9688 47.4688 24.1094 47.8281
Q26.2656 48.1875 28.4219 48.1875
Q40.625 48.1875 47.75 41.5
Q54.8906 34.8125 54.8906 23.3906
Q54.8906 11.625 47.5625 5.09375
Q40.2344 -1.42188 26.9062 -1.42188
Q22.3125 -1.42188 17.5469 -0.640625
Q12.7969 0.140625 7.71875 1.70312
L7.71875 11.625
Q12.1094 9.23438 16.7969 8.0625
Q21.4844 6.89062 26.7031 6.89062
Q35.1562 6.89062 40.0781 11.3281
Q45.0156 15.7656 45.0156 23.3906
Q45.0156 31 40.0781 35.4375
Q35.1562 39.8906 26.7031 39.8906
Q22.75 39.8906 18.8125 39.0156
Q14.8906 38.1406 10.7969 36.2812
z
" id="BitstreamVeraSans-Roman-35"/>
      </defs>
      <g transform="translate(231.666632213 169.393992787)scale(0.12 -0.12)">
       <use xlink:href="#BitstreamVeraSans-Roman-34"/>
       <use x="63.623046875" xlink:href="#BitstreamVeraSans-Roman-35"/>
       <use x="127.24609375" xlink:href="#BitstreamVeraSans-Roman-b0"/>
      </g>
     </g>
    </g>
    <g id="xtick_3">
     <g id="line2d_5">
      <path clip-path="url(#p38c0cf76b6)" d="
M295.2 112.32
L295.2 181.44" style="fill:none;stroke:#000000;stroke-dasharray:1.000000,3.000000;stroke-dashoffset:0.0;stroke-width:0.5;"/>
     </g>
     <g id="text_3">
      <!-- 90° -->
      <defs>
       <path d="
M10.9844 1.51562
L10.9844 10.5
Q14.7031 8.73438 18.5 7.8125
Q22.3125 6.89062 25.9844 6.89062
Q35.75 6.89062 40.8906 13.4531
Q46.0469 20.0156 46.7812 33.4062
Q43.9531 29.2031 39.5938 26.9531
Q35.25 24.7031 29.9844 24.7031
Q19.0469 24.7031 12.6719 31.3125
Q6.29688 37.9375 6.29688 49.4219
Q6.29688 60.6406 12.9375 67.4219
Q19.5781 74.2188 30.6094 74.2188
Q43.2656 74.2188 49.9219 64.5156
Q56.5938 54.8281 56.5938 36.375
Q56.5938 19.1406 48.4062 8.85938
Q40.2344 -1.42188 26.4219 -1.42188
Q22.7031 -1.42188 18.8906 -0.6875
Q15.0938 0.046875 10.9844 1.51562
M30.6094 32.4219
Q37.25 32.4219 41.125 36.9531
Q45.0156 41.5 45.0156 49.4219
Q45.0156 57.2812 41.125 61.8438
Q37.25 66.4062 30.6094 66.4062
Q23.9688 66.4062 20.0938 61.8438
Q16.2188 57.2812 16.2188 49.4219
Q16.2188 41.5 20.0938 36.9531
Q23.9688 32.4219 30.6094 32.4219" id="BitstreamVeraSans-Roman-39"/>
      </defs>
      <g transform="translate(285.51375 191.66325)scale(0.12 -0.12)">
       <use xlink:href="#BitstreamVeraSans-Roman-39"/>
       <use x="63.623046875" xlink:href="#BitstreamVeraSans-Roman-30"/>
       <use x="127.24609375" xlink:href="#BitstreamVeraSans-Roman-b0"/>
      </g>
     </g>
    </g>
    <g id="xtick_4">
     <g id="line2d_6">
      <path clip-path="url(#p38c0cf76b6)" d="
M295.2 112.32
L344.075 161.195" style="fill:none;stroke:#000000;stroke-dasharray:1.000000,3.000000;stroke-dashoffset:0.0;stroke-width:0.5;"/>
     </g>
     <g id="text_4">
      <!-- 135° -->
      <defs>
       <path d="
M40.5781 39.3125
Q47.6562 37.7969 51.625 33
Q55.6094 28.2188 55.6094 21.1875
Q55.6094 10.4062 48.1875 4.48438
Q40.7656 -1.42188 27.0938 -1.42188
Q22.5156 -1.42188 17.6562 -0.515625
Q12.7969 0.390625 7.625 2.20312
L7.625 11.7188
Q11.7188 9.32812 16.5938 8.10938
Q21.4844 6.89062 26.8125 6.89062
Q36.0781 6.89062 40.9375 10.5469
Q45.7969 14.2031 45.7969 21.1875
Q45.7969 27.6406 41.2812 31.2656
Q36.7656 34.9062 28.7188 34.9062
L20.2188 34.9062
L20.2188 43.0156
L29.1094 43.0156
Q36.375 43.0156 40.2344 45.9219
Q44.0938 48.8281 44.0938 54.2969
Q44.0938 59.9062 40.1094 62.9062
Q36.1406 65.9219 28.7188 65.9219
Q24.6562 65.9219 20.0156 65.0312
Q15.375 64.1562 9.8125 62.3125
L9.8125 71.0938
Q15.4375 72.6562 20.3438 73.4375
Q25.25 74.2188 29.5938 74.2188
Q40.8281 74.2188 47.3594 69.1094
Q53.9062 64.0156 53.9062 55.3281
Q53.9062 49.2656 50.4375 45.0938
Q46.9688 40.9219 40.5781 39.3125" id="BitstreamVeraSans-Roman-33"/>
       <path d="
M12.4062 8.29688
L28.5156 8.29688
L28.5156 63.9219
L10.9844 60.4062
L10.9844 69.3906
L28.4219 72.9062
L38.2812 72.9062
L38.2812 8.29688
L54.3906 8.29688
L54.3906 0
L12.4062 0
z
" id="BitstreamVeraSans-Roman-31"/>
      </defs>
      <g transform="translate(335.740242787 169.393992787)scale(0.12 -0.12)">
       <use xlink:href="#BitstreamVeraSans-Roman-31"/>
       <use x="63.623046875" xlink:href="#BitstreamVeraSans-Roman-33"/>
       <use x="127.24609375" xlink:href="#BitstreamVeraSans-Roman-35"/>
       <use x="190.869140625" xlink:href="#BitstreamVeraSans-Roman-b0"/>
      </g>
     </g>
    </g>
    <g id="xtick_5">
     <g id="line2d_7">
      <path clip-path="url(#p38c0cf76b6)" d="
M295.2 112.32
L364.32 112.32" style="fill:none;stroke:#000000;stroke-dasharray:1.000000,3.000000;stroke-dashoffset:0.0;stroke-width:0.5;"/>
     </g>
     <g id="text_5">
      <!-- 180° -->
      <defs>
       <path d="
M31.7812 34.625
Q24.75 34.625 20.7188 30.8594
Q16.7031 27.0938 16.7031 20.5156
Q16.7031 13.9219 20.7188 10.1562
Q24.75 6.39062 31.7812 6.39062
Q38.8125 6.39062 42.8594 10.1719
Q46.9219 13.9688 46.9219 20.5156
Q46.9219 27.0938 42.8906 30.8594
Q38.875 34.625 31.7812 34.625
M21.9219 38.8125
Q15.5781 40.375 12.0312 44.7188
Q8.5 49.0781 8.5 55.3281
Q8.5 64.0625 14.7188 69.1406
Q20.9531 74.2188 31.7812 74.2188
Q42.6719 74.2188 48.875 69.1406
Q55.0781 64.0625 55.0781 55.3281
Q55.0781 49.0781 51.5312 44.7188
Q48 40.375 41.7031 38.8125
Q48.8281 37.1562 52.7969 32.3125
Q56.7812 27.4844 56.7812 20.5156
Q56.7812 9.90625 50.3125 4.23438
Q43.8438 -1.42188 31.7812 -1.42188
Q19.7344 -1.42188 13.25 4.23438
Q6.78125 9.90625 6.78125 20.5156
Q6.78125 27.4844 10.7812 32.3125
Q14.7969 37.1562 21.9219 38.8125
M18.3125 54.3906
Q18.3125 48.7344 21.8438 45.5625
Q25.3906 42.3906 31.7812 42.3906
Q38.1406 42.3906 41.7188 45.5625
Q45.3125 48.7344 45.3125 54.3906
Q45.3125 60.0625 41.7188 63.2344
Q38.1406 66.4062 31.7812 66.4062
Q25.3906 66.4062 21.8438 63.2344
Q18.3125 60.0625 18.3125 54.3906" id="BitstreamVeraSans-Roman-38"/>
      </defs>
      <g transform="translate(358.0095 115.63125)scale(0.12 -0.12)">
       <use xlink:href="#BitstreamVeraSans-Roman-31"/>
       <use x="63.623046875" xlink:href="#BitstreamVeraSans-Roman-38"/>
       <use x="127.24609375" xlink:href="#BitstreamVeraSans-Roman-30"/>
       <use x="190.869140625" xlink:href="#BitstreamVeraSans-Roman-b0"/>
      </g>
     </g>
    </g>
    <g id="xtick_6">
     <g id="line2d_8">
      <path clip-path="url(#p38c0cf76b6)" d="
M295.2 112.32
L344.075 63.4448" style="fill:none;stroke:#000000;stroke-dasharray:1.000000,3.000000;stroke-dashoffset:0.0;stroke-width:0.5;"/>
     </g>
     <g id="text_6">
      <!-- 225° -->
      <defs>
       <path d="
M19.1875 8.29688
L53.6094 8.29688
L53.6094 0
L7.32812 0
L7.32812 8.29688
Q12.9375 14.1094 22.625 23.8906
Q32.3281 33.6875 34.8125 36.5312
Q39.5469 41.8438 41.4219 45.5312
Q43.3125 49.2188 43.3125 52.7812
Q43.3125 58.5938 39.2344 62.25
Q35.1562 65.9219 28.6094 65.9219
Q23.9688 65.9219 18.8125 64.3125
Q13.6719 62.7031 7.8125 59.4219
L7.8125 69.3906
Q13.7656 71.7812 18.9375 73
Q24.125 74.2188 28.4219 74.2188
Q39.75 74.2188 46.4844 68.5469
Q53.2188 62.8906 53.2188 53.4219
Q53.2188 48.9219 51.5312 44.8906
Q49.8594 40.875 45.4062 35.4062
Q44.1875 33.9844 37.6406 27.2188
Q31.1094 20.4531 19.1875 8.29688" id="BitstreamVeraSans-Roman-32"/>
      </defs>
      <g transform="translate(335.520867787 61.8685072128)scale(0.12 -0.12)">
       <use xlink:href="#BitstreamVeraSans-Roman-32"/>
       <use x="63.623046875" xlink:href="#BitstreamVeraSans-Roman-32"/>
       <use x="127.24609375" xlink:href="#BitstreamVeraSans-Roman-35"/>
       <use x="190.869140625" xlink:href="#BitstreamVeraSans-Roman-b0"/>
      </g>
     </g>
    </g>
    <g id="xtick_7">
     <g id="line2d_9">
      <path clip-path="url(#p38c0cf76b6)" d="
M295.2 112.32
L295.2 43.2" style="fill:none;stroke:#000000;stroke-dasharray:1.000000,3.000000;stroke-dashoffset:0.0;stroke-width:0.5;"/>
     </g>
     <g id="text_7">
      <!-- 270° -->
      <defs>
       <path d="
M8.20312 72.9062
L55.0781 72.9062
L55.0781 68.7031
L28.6094 0
L18.3125 0
L43.2188 64.5938
L8.20312 64.5938
z
" id="BitstreamVeraSans-Roman-37"/>
      </defs>
      <g transform="translate(281.758125 39.59925)scale(0.12 -0.12)">
       <use xlink:href="#BitstreamVeraSans-Roman-32"/>
       <use x="63.623046875" xlink:href="#BitstreamVeraSans-Roman-37"/>
       <use x="127.24609375" xlink:href="#BitstreamVeraSans-Roman-30"/>
       <use x="190.869140625" xlink:href="#BitstreamVeraSans-Roman-b0"/>
      </g>
     </g>
    </g>
    <g id="xtick_8">
     <g id="line2d_10">
      <path clip-path="url(#p38c0cf76b6)" d="
M295.2 112.32
L246.325 63.4448" style="fill:none;stroke:#000000;stroke-dasharray:1.000000,3.000000;stroke-dashoffset:0.0;stroke-width:0.5;"/>
     </g>
     <g id="text_8">
      <!-- 315° -->
      <g transform="translate(228.013194713 61.8685072128)scale(0.12 -0.12)">
       <use xlink:href="#BitstreamVeraSans-Roman-33"/>
       <use x="63.623046875" xlink:href="#BitstreamVeraSans-Roman-31"/>
       <use x="127.24609375" xlink:href="#BitstreamVeraSans-Roman-35"/>
       <use x="190.869140625" xlink:href="#BitstreamVeraSans-Roman-b0"/>
      </g>
     </g>
    </g>
   </g>
   <g id="matplotlib.axis_2">
    <g id="ytick_1">
     <g id="line2d_11">
      <path clip-path="url(#p38c0cf76b6)" d="
M295.2 112.32
L295.2 112.32" style="fill:none;stroke:#000000;stroke-dasharray:1.000000,3.000000;stroke-dashoffset:0.0;stroke-width:0.5;"/>
     </g>
     <g id="text_9">
      <!-- 0 -->
      <g transform="translate(295.2 111.0721875)scale(0.06 -0.06)">
       <use xlink:href="#BitstreamVeraSans-Roman-30"/>
      </g>
     </g>
    </g>
    <g id="ytick_2">
     <g id="line2d_12">
      <path clip-path="url(#p38c0cf76b6)" d="
M260.64 112.32
L260.661 113.526
L260.724 114.731
L260.976 117.13
L261.395 119.505
L261.979 121.846
L262.724 124.14
L263.628 126.377
L264.685 128.545
L265.891 130.634
L267.24 132.634
L268.726 134.535
L270.34 136.327
L272.075 138.003
L273.923 139.554
L275.874 140.972
L277.92 142.25
L280.05 143.382
L282.254 144.363
L284.52 145.189
L286.839 145.853
L289.199 146.355
L291.587 146.691
L293.994 146.859
L296.406 146.859
L298.813 146.691
L301.201 146.355
L303.561 145.853
L305.88 145.189
L308.146 144.363
L310.35 143.382
L312.48 142.25
L314.526 140.972
L316.477 139.554
L318.325 138.003
L320.06 136.327
L321.674 134.535
L323.16 132.634
L324.509 130.634
L325.715 128.545
L326.772 126.377
L327.676 124.14
L328.421 121.846
L329.005 119.505
L329.424 117.13
L329.676 114.731
L329.76 112.32
L329.676 109.909
L329.424 107.51
L329.005 105.135
L328.421 102.794
L327.676 100.5
L326.772 98.2632
L325.715 96.0951
L324.509 94.006
L323.16 92.0061
L321.674 90.1053
L320.06 88.3126
L318.325 86.6369
L316.477 85.0863
L314.526 83.6685
L312.48 82.3902
L310.35 81.2577
L308.146 80.2765
L305.88 79.4515
L303.561 78.7866
L301.201 78.285
L298.813 77.9493
L296.406 77.7811
L293.994 77.7811
L291.587 77.9493
L289.199 78.285
L286.839 78.7866
L284.52 79.4515
L282.254 80.2765
L280.05 81.2577
L277.92 82.3902
L275.874 83.6685
L273.923 85.0863
L272.075 86.6369
L270.34 88.3126
L268.726 90.1053
L267.24 92.0061
L265.891 94.006
L264.685 96.0951
L263.628 98.2632
L262.724 100.5
L261.979 102.794
L261.395 105.135
L260.976 107.51
L260.724 109.909
L260.64 112.32
L260.64 112.32" style="fill:none;stroke:#000000;stroke-dasharray:1.000000,3.000000;stroke-dashoffset:0.0;stroke-width:0.5;"/>
     </g>
     <g id="text_10">
      <!-- 2 -->
      <g transform="translate(263.270723356 124.297726923)scale(0.06 -0.06)">
       <use xlink:href="#BitstreamVeraSans-Roman-32"/>
      </g>
     </g>
    </g>
    <g id="ytick_3">
     <g id="line2d_13">
      <path clip-path="url(#p38c0cf76b6)" d="
M226.08 112.32
L226.122 114.732
L226.248 117.142
L226.753 121.94
L227.59 126.691
L228.758 131.372
L230.248 135.96
L232.056 140.434
L234.171 144.77
L236.583 148.948
L239.281 152.948
L242.251 156.749
L245.479 160.335
L248.95 163.686
L252.645 166.787
L256.549 169.623
L260.64 172.18
L264.9 174.445
L269.307 176.407
L273.841 178.057
L278.478 179.387
L283.197 180.39
L287.975 181.061
L292.788 181.398
L297.612 181.398
L302.425 181.061
L307.203 180.39
L311.922 179.387
L316.559 178.057
L321.093 176.407
L325.5 174.445
L329.76 172.18
L333.851 169.623
L337.755 166.787
L341.45 163.686
L344.921 160.335
L348.149 156.749
L351.119 152.948
L353.817 148.948
L356.229 144.77
L358.344 140.434
L360.152 135.96
L361.642 131.372
L362.81 126.691
L363.647 121.94
L364.152 117.142
L364.32 112.32
L364.152 107.498
L363.647 102.7
L362.81 97.9491
L361.642 93.2679
L360.152 88.6796
L358.344 84.2064
L356.229 79.8701
L353.817 75.692
L351.119 71.6923
L348.149 67.8905
L344.921 64.3052
L341.45 60.9538
L337.755 57.8527
L333.851 55.0169
L329.76 52.4603
L325.5 50.1954
L321.093 48.2331
L316.559 46.583
L311.922 45.2532
L307.203 44.2501
L302.425 43.5786
L297.612 43.2421
L292.788 43.2421
L287.975 43.5786
L283.197 44.2501
L278.478 45.2532
L273.841 46.583
L269.307 48.2331
L264.9 50.1954
L260.64 52.4603
L256.549 55.0169
L252.645 57.8527
L248.95 60.9538
L245.479 64.3052
L242.251 67.8905
L239.281 71.6923
L236.583 75.692
L234.171 79.8701
L232.056 84.2064
L230.248 88.6796
L228.758 93.2679
L227.59 97.9491
L226.753 102.7
L226.248 107.498
L226.08 112.32
L226.08 112.32" style="fill:none;stroke:#000000;stroke-dasharray:1.000000,3.000000;stroke-dashoffset:0.0;stroke-width:0.5;"/>
     </g>
     <g id="text_11">
      <!-- 4 -->
      <g transform="translate(231.341446713 137.523266345)scale(0.06 -0.06)">
       <use xlink:href="#BitstreamVeraSans-Roman-34"/>
      </g>
     </g>
    </g>
   </g>
   <g id="patch_3">
    <path d="
M295.2 181.44
C313.531 181.44 331.113 174.157 344.075 161.195
C357.037 148.233 364.32 130.651 364.32 112.32
C364.32 93.9892 357.037 76.4066 344.075 63.4448
C331.113 50.4829 313.531 43.2 295.2 43.2
C276.869 43.2 259.287 50.4829 246.325 63.4448
C233.363 76.4066 226.08 93.9892 226.08 112.32
C226.08 130.651 233.363 148.233 246.325 161.195
C259.287 174.157 276.869 181.44 295.2 181.44
z
" style="fill:none;stroke:#000000;"/>
   </g>
   <g id="text_12">
    <!-- log[S1(blue) &amp; S2(orange)]vs Angle, n- (1.6+0.01j) x-4.83 -->
    <defs>
     <path id="BitstreamVeraSans-Roman-20"/>
     <path d="
M8.59375 75.9844
L29.2969 75.9844
L29.2969 69
L17.5781 69
L17.5781 -6.20312
L29.2969 -6.20312
L29.2969 -13.1875
L8.59375 -13.1875
z
" id="BitstreamVeraSans-Roman-5b"/>
     <path d="
M30.4219 75.9844
L30.4219 -13.1875
L9.71875 -13.1875
L9.71875 -6.20312
L21.3906 -6.20312
L21.3906 69
L9.71875 69
L9.71875 75.9844
z
" id="BitstreamVeraSans-Roman-5d"/>
     <path d="
M24.3125 39.2031
Q19.875 35.25 17.7969 31.3125
Q15.7188 27.3906 15.7188 23.0938
Q15.7188 15.9688 20.8906 11.2344
Q26.0781 6.5 33.8906 6.5
Q38.5312 6.5 42.5781 8.03125
Q46.625 9.57812 50.2031 12.7031
z

M31.2031 44.6719
L56 19.2812
Q58.8906 23.6406 60.5 28.5938
Q62.1094 33.5469 62.4062 39.1094
L71.4844 39.1094
Q70.9062 32.6719 68.3594 26.3594
Q65.8281 20.0625 61.2812 13.9219
L74.9062 0
L62.5938 0
L55.6094 7.17188
Q50.5312 2.82812 44.9688 0.703125
Q39.4062 -1.42188 33.0156 -1.42188
Q21.2344 -1.42188 13.7656 5.29688
Q6.29688 12.0156 6.29688 22.5156
Q6.29688 28.7656 9.5625 34.25
Q12.8438 39.75 19.3906 44.5781
Q17.0469 47.6562 15.8125 50.7031
Q14.5938 53.7656 14.5938 56.6875
Q14.5938 64.5938 20.0156 69.4062
Q25.4375 74.2188 34.4219 74.2188
Q38.4844 74.2188 42.5 73.3438
Q46.5312 72.4688 50.6875 70.7031
L50.6875 61.8125
Q46.4375 64.1094 42.5781 65.2969
Q38.7188 66.5 35.4062 66.5
Q30.2812 66.5 27.0781 63.7812
Q23.875 61.0781 23.875 56.7812
Q23.875 54.2969 25.3125 51.7812
Q26.7656 49.2656 31.2031 44.6719" id="BitstreamVeraSans-Roman-26"/>
     <path d="
M8.01562 75.875
L15.8281 75.875
Q23.1406 64.3594 26.7812 53.3125
Q30.4219 42.2812 30.4219 31.3906
Q30.4219 20.4531 26.7812 9.375
Q23.1406 -1.70312 15.8281 -13.1875
L8.01562 -13.1875
Q14.5 -2 17.7031 9.0625
Q20.9062 20.125 20.9062 31.3906
Q20.9062 42.6719 17.7031 53.6562
Q14.5 64.6562 8.01562 75.875" id="BitstreamVeraSans-Roman-29"/>
     <path d="
M31 75.875
Q24.4688 64.6562 21.2812 53.6562
Q18.1094 42.6719 18.1094 31.3906
Q18.1094 20.125 21.3125 9.0625
Q24.5156 -2 31 -13.1875
L23.1875 -13.1875
Q15.875 -1.70312 12.2344 9.375
Q8.59375 20.4531 8.59375 31.3906
Q8.59375 42.2812 12.2031 53.3125
Q15.8281 64.3594 23.1875 75.875
z
" id="BitstreamVeraSans-Roman-28"/>
     <path d="
M34.1875 63.1875
L20.7969 26.9062
L47.6094 26.9062
z

M28.6094 72.9062
L39.7969 72.9062
L67.5781 0
L57.3281 0
L50.6875 18.7031
L17.8281 18.7031
L11.1875 0
L0.78125 0
z
" id="BitstreamVeraSans-Roman-41"/>
     <path d="
M56.2031 29.5938
L56.2031 25.2031
L14.8906 25.2031
Q15.4844 15.9219 20.4844 11.0625
Q25.4844 6.20312 34.4219 6.20312
Q39.5938 6.20312 44.4531 7.46875
Q49.3125 8.73438 54.1094 11.2812
L54.1094 2.78125
Q49.2656 0.734375 44.1875 -0.34375
Q39.1094 -1.42188 33.8906 -1.42188
Q20.7969 -1.42188 13.1562 6.1875
Q5.51562 13.8125 5.51562 26.8125
Q5.51562 40.2344 12.7656 48.1094
Q20.0156 56 32.3281 56
Q43.3594 56 49.7812 48.8906
Q56.2031 41.7969 56.2031 29.5938
M47.2188 32.2344
Q47.125 39.5938 43.0938 43.9844
Q39.0625 48.3906 32.4219 48.3906
Q24.9062 48.3906 20.3906 44.1406
Q15.875 39.8906 15.1875 32.1719
z
" id="BitstreamVeraSans-Roman-65"/>
     <path d="
M45.4062 27.9844
Q45.4062 37.75 41.375 43.1094
Q37.3594 48.4844 30.0781 48.4844
Q22.8594 48.4844 18.8281 43.1094
Q14.7969 37.75 14.7969 27.9844
Q14.7969 18.2656 18.8281 12.8906
Q22.8594 7.51562 30.0781 7.51562
Q37.3594 7.51562 41.375 12.8906
Q45.4062 18.2656 45.4062 27.9844
M54.3906 6.78125
Q54.3906 -7.17188 48.1875 -13.9844
Q42 -20.7969 29.2031 -20.7969
Q24.4688 -20.7969 20.2656 -20.0938
Q16.0625 -19.3906 12.1094 -17.9219
L12.1094 -9.1875
Q16.0625 -11.3281 19.9219 -12.3438
Q23.7812 -13.375 27.7812 -13.375
Q36.625 -13.375 41.0156 -8.76562
Q45.4062 -4.15625 45.4062 5.17188
L45.4062 9.625
Q42.625 4.78125 38.2812 2.39062
Q33.9375 0 27.875 0
Q17.8281 0 11.6719 7.65625
Q5.51562 15.3281 5.51562 27.9844
Q5.51562 40.6719 11.6719 48.3281
Q17.8281 56 27.875 56
Q33.9375 56 38.2812 53.6094
Q42.625 51.2188 45.4062 46.3906
L45.4062 54.6875
L54.3906 54.6875
z
" id="BitstreamVeraSans-Roman-67"/>
     <path d="
M34.2812 27.4844
Q23.3906 27.4844 19.1875 25
Q14.9844 22.5156 14.9844 16.5
Q14.9844 11.7188 18.1406 8.90625
Q21.2969 6.10938 26.7031 6.10938
Q34.1875 6.10938 38.7031 11.4062
Q43.2188 16.7031 43.2188 25.4844
L43.2188 27.4844
z

M52.2031 31.2031
L52.2031 0
L43.2188 0
L43.2188 8.29688
Q40.1406 3.32812 35.5469 0.953125
Q30.9531 -1.42188 24.3125 -1.42188
Q15.9219 -1.42188 10.9531 3.29688
Q6 8.01562 6 15.9219
Q6 25.1406 12.1719 29.8281
Q18.3594 34.5156 30.6094 34.5156
L43.2188 34.5156
L43.2188 35.4062
Q43.2188 41.6094 39.1406 45
Q35.0625 48.3906 27.6875 48.3906
Q23 48.3906 18.5469 47.2656
Q14.1094 46.1406 10.0156 43.8906
L10.0156 52.2031
Q14.9375 54.1094 19.5781 55.0469
Q24.2188 56 28.6094 56
Q40.4844 56 46.3438 49.8438
Q52.2031 43.7031 52.2031 31.2031" id="BitstreamVeraSans-Roman-61"/>
     <path d="
M48.6875 27.2969
Q48.6875 37.2031 44.6094 42.8438
Q40.5312 48.4844 33.4062 48.4844
Q26.2656 48.4844 22.1875 42.8438
Q18.1094 37.2031 18.1094 27.2969
Q18.1094 17.3906 22.1875 11.75
Q26.2656 6.10938 33.4062 6.10938
Q40.5312 6.10938 44.6094 11.75
Q48.6875 17.3906 48.6875 27.2969
M18.1094 46.3906
Q20.9531 51.2656 25.2656 53.625
Q29.5938 56 35.5938 56
Q45.5625 56 51.7812 48.0938
Q58.0156 40.1875 58.0156 27.2969
Q58.0156 14.4062 51.7812 6.48438
Q45.5625 -1.42188 35.5938 -1.42188
Q29.5938 -1.42188 25.2656 0.953125
Q20.9531 3.32812 18.1094 8.20312
L18.1094 0
L9.07812 0
L9.07812 75.9844
L18.1094 75.9844
z
" id="BitstreamVeraSans-Roman-62"/>
     <path d="
M33.0156 40.375
Q26.375 40.375 22.4844 35.8281
Q18.6094 31.2969 18.6094 23.3906
Q18.6094 15.5312 22.4844 10.9531
Q26.375 6.39062 33.0156 6.39062
Q39.6562 6.39062 43.5312 10.9531
Q47.4062 15.5312 47.4062 23.3906
Q47.4062 31.2969 43.5312 35.8281
Q39.6562 40.375 33.0156 40.375
M52.5938 71.2969
L52.5938 62.3125
Q48.875 64.0625 45.0938 64.9844
Q41.3125 65.9219 37.5938 65.9219
Q27.8281 65.9219 22.6719 59.3281
Q17.5312 52.7344 16.7969 39.4062
Q19.6719 43.6562 24.0156 45.9219
Q28.375 48.1875 33.5938 48.1875
Q44.5781 48.1875 50.9531 41.5156
Q57.3281 34.8594 57.3281 23.3906
Q57.3281 12.1562 50.6875 5.35938
Q44.0469 -1.42188 33.0156 -1.42188
Q20.3594 -1.42188 13.6719 8.26562
Q6.98438 17.9688 6.98438 36.375
Q6.98438 53.6562 15.1875 63.9375
Q23.3906 74.2188 37.2031 74.2188
Q40.9219 74.2188 44.7031 73.4844
Q48.4844 72.75 52.5938 71.2969" id="BitstreamVeraSans-Roman-36"/>
     <path d="
M54.8906 33.0156
L54.8906 0
L45.9062 0
L45.9062 32.7188
Q45.9062 40.4844 42.875 44.3281
Q39.8438 48.1875 33.7969 48.1875
Q26.5156 48.1875 22.3125 43.5469
Q18.1094 38.9219 18.1094 30.9062
L18.1094 0
L9.07812 0
L9.07812 54.6875
L18.1094 54.6875
L18.1094 46.1875
Q21.3438 51.125 25.7031 53.5625
Q30.0781 56 35.7969 56
Q45.2188 56 50.0469 50.1719
Q54.8906 44.3438 54.8906 33.0156" id="BitstreamVeraSans-Roman-6e"/>
     <path d="
M30.6094 48.3906
Q23.3906 48.3906 19.1875 42.75
Q14.9844 37.1094 14.9844 27.2969
Q14.9844 17.4844 19.1562 11.8438
Q23.3438 6.20312 30.6094 6.20312
Q37.7969 6.20312 41.9844 11.8594
Q46.1875 17.5312 46.1875 27.2969
Q46.1875 37.0156 41.9844 42.7031
Q37.7969 48.3906 30.6094 48.3906
M30.6094 56
Q42.3281 56 49.0156 48.375
Q55.7188 40.7656 55.7188 27.2969
Q55.7188 13.875 49.0156 6.21875
Q42.3281 -1.42188 30.6094 -1.42188
Q18.8438 -1.42188 12.1719 6.21875
Q5.51562 13.875 5.51562 27.2969
Q5.51562 40.7656 12.1719 48.375
Q18.8438 56 30.6094 56" id="BitstreamVeraSans-Roman-6f"/>
     <path d="
M9.42188 54.6875
L18.4062 54.6875
L18.4062 -0.984375
Q18.4062 -11.4219 14.4219 -16.1094
Q10.4531 -20.7969 1.60938 -20.7969
L-1.8125 -20.7969
L-1.8125 -13.1875
L0.59375 -13.1875
Q5.71875 -13.1875 7.5625 -10.8125
Q9.42188 -8.45312 9.42188 -0.984375
z

M9.42188 75.9844
L18.4062 75.9844
L18.4062 64.5938
L9.42188 64.5938
z
" id="BitstreamVeraSans-Roman-6a"/>
     <path d="
M9.42188 75.9844
L18.4062 75.9844
L18.4062 0
L9.42188 0
z
" id="BitstreamVeraSans-Roman-6c"/>
     <path d="
M11.7188 12.4062
L22.0156 12.4062
L22.0156 4
L14.0156 -11.625
L7.71875 -11.625
L11.7188 4
z
" id="BitstreamVeraSans-Roman-2c"/>
     <path d="
M53.5156 70.5156
L53.5156 60.8906
Q47.9062 63.5781 42.9219 64.8906
Q37.9375 66.2188 33.2969 66.2188
Q25.25 66.2188 20.875 63.0938
Q16.5 59.9688 16.5 54.2031
Q16.5 49.3594 19.4062 46.8906
Q22.3125 44.4375 30.4219 42.9219
L36.375 41.7031
Q47.4062 39.5938 52.6562 34.2969
Q57.9062 29 57.9062 20.125
Q57.9062 9.51562 50.7969 4.04688
Q43.7031 -1.42188 29.9844 -1.42188
Q24.8125 -1.42188 18.9688 -0.25
Q13.1406 0.921875 6.89062 3.21875
L6.89062 13.375
Q12.8906 10.0156 18.6562 8.29688
Q24.4219 6.59375 29.9844 6.59375
Q38.4219 6.59375 43.0156 9.90625
Q47.6094 13.2344 47.6094 19.3906
Q47.6094 24.75 44.3125 27.7812
Q41.0156 30.8125 33.5 32.3281
L27.4844 33.5
Q16.4531 35.6875 11.5156 40.375
Q6.59375 45.0625 6.59375 53.4219
Q6.59375 63.0938 13.4062 68.6562
Q20.2188 74.2188 32.1719 74.2188
Q37.3125 74.2188 42.625 73.2812
Q47.9531 72.3594 53.5156 70.5156" id="BitstreamVeraSans-Roman-53"/>
     <path d="
M10.6875 12.4062
L21 12.4062
L21 0
L10.6875 0
z
" id="BitstreamVeraSans-Roman-2e"/>
     <path d="
M4.89062 31.3906
L31.2031 31.3906
L31.2031 23.3906
L4.89062 23.3906
z
" id="BitstreamVeraSans-Roman-2d"/>
     <path d="
M54.8906 54.6875
L35.1094 28.0781
L55.9062 0
L45.3125 0
L29.3906 21.4844
L13.4844 0
L2.875 0
L24.125 28.6094
L4.6875 54.6875
L15.2812 54.6875
L29.7812 35.2031
L44.2812 54.6875
z
" id="BitstreamVeraSans-Roman-78"/>
     <path d="
M2.98438 54.6875
L12.5 54.6875
L29.5938 8.79688
L46.6875 54.6875
L56.2031 54.6875
L35.6875 0
L23.4844 0
z
" id="BitstreamVeraSans-Roman-76"/>
     <path d="
M8.5 21.5781
L8.5 54.6875
L17.4844 54.6875
L17.4844 21.9219
Q17.4844 14.1562 20.5 10.2656
Q23.5312 6.39062 29.5938 6.39062
Q36.8594 6.39062 41.0781 11.0312
Q45.3125 15.6719 45.3125 23.6875
L45.3125 54.6875
L54.2969 54.6875
L54.2969 0
L45.3125 0
L45.3125 8.40625
Q42.0469 3.42188 37.7188 1
Q33.4062 -1.42188 27.6875 -1.42188
Q18.2656 -1.42188 13.375 4.4375
Q8.5 10.2969 8.5 21.5781" id="BitstreamVeraSans-Roman-75"/>
     <path d="
M41.1094 46.2969
Q39.5938 47.1719 37.8125 47.5781
Q36.0312 48 33.8906 48
Q26.2656 48 22.1875 43.0469
Q18.1094 38.0938 18.1094 28.8125
L18.1094 0
L9.07812 0
L9.07812 54.6875
L18.1094 54.6875
L18.1094 46.1875
Q20.9531 51.1719 25.4844 53.5781
Q30.0312 56 36.5312 56
Q37.4531 56 38.5781 55.875
Q39.7031 55.7656 41.0625 55.5156
z
" id="BitstreamVeraSans-Roman-72"/>
     <path d="
M44.2812 53.0781
L44.2812 44.5781
Q40.4844 46.5312 36.375 47.5
Q32.2812 48.4844 27.875 48.4844
Q21.1875 48.4844 17.8438 46.4375
Q14.5 44.3906 14.5 40.2812
Q14.5 37.1562 16.8906 35.375
Q19.2812 33.5938 26.5156 31.9844
L29.5938 31.2969
Q39.1562 29.25 43.1875 25.5156
Q47.2188 21.7812 47.2188 15.0938
Q47.2188 7.46875 41.1875 3.01562
Q35.1562 -1.42188 24.6094 -1.42188
Q20.2188 -1.42188 15.4531 -0.5625
Q10.6875 0.296875 5.42188 2
L5.42188 11.2812
Q10.4062 8.6875 15.2344 7.39062
Q20.0625 6.10938 24.8125 6.10938
Q31.1562 6.10938 34.5625 8.28125
Q37.9844 10.4531 37.9844 14.4062
Q37.9844 18.0625 35.5156 20.0156
Q33.0625 21.9688 24.7031 23.7812
L21.5781 24.5156
Q13.2344 26.2656 9.51562 29.9062
Q5.8125 33.5469 5.8125 39.8906
Q5.8125 47.6094 11.2812 51.7969
Q16.75 56 26.8125 56
Q31.7812 56 36.1719 55.2656
Q40.5781 54.5469 44.2812 53.0781" id="BitstreamVeraSans-Roman-73"/>
     <path d="
M46 62.7031
L46 35.5
L73.1875 35.5
L73.1875 27.2031
L46 27.2031
L46 0
L37.7969 0
L37.7969 27.2031
L10.5938 27.2031
L10.5938 35.5
L37.7969 35.5
L37.7969 62.7031
z
" id="BitstreamVeraSans-Roman-2b"/>
    </defs>
    <g transform="translate(179.765 26.85945)scale(0.08 -0.08)">
     <use xlink:href="#BitstreamVeraSans-Roman-6c"/>
     <use x="27.783203125" xlink:href="#BitstreamVeraSans-Roman-6f"/>
     <use x="88.96484375" xlink:href="#BitstreamVeraSans-Roman-67"/>
     <use x="152.44140625" xlink:href="#BitstreamVeraSans-Roman-5b"/>
     <use x="191.455078125" xlink:href="#BitstreamVeraSans-Roman-53"/>
     <use x="254.931640625" xlink:href="#BitstreamVeraSans-Roman-31"/>
     <use x="318.5546875" xlink:href="#BitstreamVeraSans-Roman-28"/>
     <use x="357.568359375" xlink:href="#BitstreamVeraSans-Roman-62"/>
     <use x="421.044921875" xlink:href="#BitstreamVeraSans-Roman-6c"/>
     <use x="448.828125" xlink:href="#BitstreamVeraSans-Roman-75"/>
     <use x="512.20703125" xlink:href="#BitstreamVeraSans-Roman-65"/>
     <use x="573.73046875" xlink:href="#BitstreamVeraSans-Roman-29"/>
     <use x="612.744140625" xlink:href="#BitstreamVeraSans-Roman-20"/>
     <use x="644.53125" xlink:href="#BitstreamVeraSans-Roman-26"/>
     <use x="722.509765625" xlink:href="#BitstreamVeraSans-Roman-20"/>
     <use x="754.296875" xlink:href="#BitstreamVeraSans-Roman-53"/>
     <use x="817.7734375" xlink:href="#BitstreamVeraSans-Roman-32"/>
     <use x="881.396484375" xlink:href="#BitstreamVeraSans-Roman-28"/>
     <use x="920.41015625" xlink:href="#BitstreamVeraSans-Roman-6f"/>
     <use x="981.591796875" xlink:href="#BitstreamVeraSans-Roman-72"/>
     <use x="1022.70507812" xlink:href="#BitstreamVeraSans-Roman-61"/>
     <use x="1083.984375" xlink:href="#BitstreamVeraSans-Roman-6e"/>
     <use x="1147.36328125" xlink:href="#BitstreamVeraSans-Roman-67"/>
     <use x="1210.83984375" xlink:href="#BitstreamVeraSans-Roman-65"/>
     <use x="1272.36328125" xlink:href="#BitstreamVeraSans-Roman-29"/>
     <use x="1311.37695312" xlink:href="#BitstreamVeraSans-Roman-5d"/>
     <use x="1350.390625" xlink:href="#BitstreamVeraSans-Roman-76"/>
     <use x="1409.5703125" xlink:href="#BitstreamVeraSans-Roman-73"/>
     <use x="1461.66992188" xlink:href="#BitstreamVeraSans-Roman-20"/>
     <use x="1493.45703125" xlink:href="#BitstreamVeraSans-Roman-41"/>
     <use x="1561.86523438" xlink:href="#BitstreamVeraSans-Roman-6e"/>
     <use x="1625.24414062" xlink:href="#BitstreamVeraSans-Roman-67"/>
     <use x="1688.72070312" xlink:href="#BitstreamVeraSans-Roman-6c"/>
     <use x="1716.50390625" xlink:href="#BitstreamVeraSans-Roman-65"/>
     <use x="1778.02734375" xlink:href="#BitstreamVeraSans-Roman-2c"/>
     <use x="1809.81445312" xlink:href="#BitstreamVeraSans-Roman-20"/>
     <use x="1841.6015625" xlink:href="#BitstreamVeraSans-Roman-6e"/>
     <use x="1904.98046875" xlink:href="#BitstreamVeraSans-Roman-2d"/>
     <use x="1941.06445312" xlink:href="#BitstreamVeraSans-Roman-20"/>
     <use x="1972.8515625" xlink:href="#BitstreamVeraSans-Roman-28"/>
     <use x="2011.86523438" xlink:href="#BitstreamVeraSans-Roman-31"/>
     <use x="2075.48828125" xlink:href="#BitstreamVeraSans-Roman-2e"/>
     <use x="2107.27539062" xlink:href="#BitstreamVeraSans-Roman-36"/>
     <use x="2170.8984375" xlink:href="#BitstreamVeraSans-Roman-2b"/>
     <use x="2254.6875" xlink:href="#BitstreamVeraSans-Roman-30"/>
     <use x="2318.31054688" xlink:href="#BitstreamVeraSans-Roman-2e"/>
     <use x="2350.09765625" xlink:href="#BitstreamVeraSans-Roman-30"/>
     <use x="2413.72070312" xlink:href="#BitstreamVeraSans-Roman-31"/>
     <use x="2477.34375" xlink:href="#BitstreamVeraSans-Roman-6a"/>
     <use x="2505.12695312" xlink:href="#BitstreamVeraSans-Roman-29"/>
     <use x="2544.140625" xlink:href="#BitstreamVeraSans-Roman-20"/>
     <use x="2575.92773438" xlink:href="#BitstreamVeraSans-Roman-78"/>
     <use x="2635.10742188" xlink:href="#BitstreamVeraSans-Roman-2d"/>
     <use x="2671.19140625" xlink:href="#BitstreamVeraSans-Roman-34"/>
     <use x="2734.81445312" xlink:href="#BitstreamVeraSans-Roman-2e"/>
     <use x="2766.6015625" xlink:href="#BitstreamVeraSans-Roman-38"/>
     <use x="2830.22460938" xlink:href="#BitstreamVeraSans-Roman-33"/>
    </g>
   </g>
  </g>
  <g id="axes_2">
   <g id="patch_4">
    <path d="
M295.2 388.8
C313.531 388.8 331.113 381.517 344.075 368.555
C357.037 355.593 364.32 338.011 364.32 319.68
C364.32 301.349 357.037 283.767 344.075 270.805
C331.113 257.843 313.531 250.56 295.2 250.56
C276.869 250.56 259.287 257.843 246.325 270.805
C233.363 283.767 226.08 301.349 226.08 319.68
C226.08 338.011 233.363 355.593 246.325 368.555
C259.287 381.517 276.869 388.8 295.2 388.8
z
" style="fill:#ffffff;"/>
   </g>
   <g id="line2d_14">
    <path clip-path="url(#pbd79c3c9f0)" d="
M226.664 319.68
L226.772 320.541
L227.095 321.394
L227.629 322.231
L228.589 323.244
L229.862 324.208
L231.431 325.108
L233.277 325.933
L235.825 326.809
L238.695 327.549
L241.836 328.141
L245.774 328.636
L249.922 328.918
L254.191 328.992
L259.105 328.836
L263.937 328.453
L269.136 327.797
L273.951 326.963
L278.721 325.914
L283.148 324.722
L287.456 323.328
L291.374 321.817
L292.612 321.405
L292.614 321.416
L292.515 321.607
L291.524 323.159
L291.538 323.489
L291.743 323.558
L292.153 323.417
L292.864 322.923
L293.852 321.949
L294.796 321.044
L294.956 321.04
L295.123 320.721
L295.265 320.229
L295.355 320.358
L295.467 320.447
L295.488 320.361
L295.383 319.945
L295.581 320.118
L296.204 320.517
L296.407 320.479
L296.41 320.465
L296.547 320.279
L297.598 320.402
L299.177 320.452
L300.367 320.284
L301.037 319.992
L301.23 319.699
L301.231 319.68
L226.671 319.68
L226.83 318.82
L227.203 317.969
L227.787 317.135
L228.808 316.127
L230.138 315.172
L231.761 314.281
L233.657 313.466
L236.26 312.603
L239.176 311.878
L242.356 311.302
L246.328 310.825
L250.498 310.56
L254.776 310.501
L259.687 310.671
L264.503 311.065
L269.667 311.729
L274.435 312.563
L279.141 313.605
L283.84 314.885
L287.939 316.232
L292.062 317.835
L292.607 317.963
L292.606 317.927
L292.374 317.583
L291.585 316.407
L291.495 315.946
L291.645 315.816
L291.978 315.877
L292.621 316.261
L293.559 317.106
L294.839 318.286
L294.978 318.35
L295.151 318.742
L295.263 319.131
L295.343 319.017
L295.465 318.912
L295.486 318.999
L295.382 319.415
L295.579 319.241
L296.202 318.84
L296.405 318.877
L296.408 318.891
L296.545 319.077
L297.596 318.95
L299.175 318.895
L300.365 319.06
L301.036 319.349
L301.23 319.642
L301.231 319.661
L301.231 319.661" style="fill:none;stroke:#ff0000;stroke-linecap:square;"/>
   </g>
   <g id="matplotlib.axis_3">
    <g id="xtick_9">
     <g id="line2d_15">
      <path clip-path="url(#pbd79c3c9f0)" d="
M295.2 319.68
L226.08 319.68" style="fill:none;stroke:#000000;stroke-dasharray:1.000000,3.000000;stroke-dashoffset:0.0;stroke-width:0.5;"/>
     </g>
     <g id="text_13">
      <!-- 0° -->
      <g transform="translate(213.3170625 322.99125)scale(0.12 -0.12)">
       <use xlink:href="#BitstreamVeraSans-Roman-30"/>
       <use x="63.623046875" xlink:href="#BitstreamVeraSans-Roman-b0"/>
      </g>
     </g>
    </g>
    <g id="xtick_10">
     <g id="line2d_16">
      <path clip-path="url(#pbd79c3c9f0)" d="
M295.2 319.68
L246.325 368.555" style="fill:none;stroke:#000000;stroke-dasharray:1.000000,3.000000;stroke-dashoffset:0.0;stroke-width:0.5;"/>
     </g>
     <g id="text_14">
      <!-- 45° -->
      <g transform="translate(231.666632213 376.753992787)scale(0.12 -0.12)">
       <use xlink:href="#BitstreamVeraSans-Roman-34"/>
       <use x="63.623046875" xlink:href="#BitstreamVeraSans-Roman-35"/>
       <use x="127.24609375" xlink:href="#BitstreamVeraSans-Roman-b0"/>
      </g>
     </g>
    </g>
    <g id="xtick_11">
     <g id="line2d_17">
      <path clip-path="url(#pbd79c3c9f0)" d="
M295.2 319.68
L295.2 388.8" style="fill:none;stroke:#000000;stroke-dasharray:1.000000,3.000000;stroke-dashoffset:0.0;stroke-width:0.5;"/>
     </g>
     <g id="text_15">
      <!-- 90° -->
      <g transform="translate(285.51375 399.02325)scale(0.12 -0.12)">
       <use xlink:href="#BitstreamVeraSans-Roman-39"/>
       <use x="63.623046875" xlink:href="#BitstreamVeraSans-Roman-30"/>
       <use x="127.24609375" xlink:href="#BitstreamVeraSans-Roman-b0"/>
      </g>
     </g>
    </g>
    <g id="xtick_12">
     <g id="line2d_18">
      <path clip-path="url(#pbd79c3c9f0)" d="
M295.2 319.68
L344.075 368.555" style="fill:none;stroke:#000000;stroke-dasharray:1.000000,3.000000;stroke-dashoffset:0.0;stroke-width:0.5;"/>
     </g>
     <g id="text_16">
      <!-- 135° -->
      <g transform="translate(335.740242787 376.753992787)scale(0.12 -0.12)">
       <use xlink:href="#BitstreamVeraSans-Roman-31"/>
       <use x="63.623046875" xlink:href="#BitstreamVeraSans-Roman-33"/>
       <use x="127.24609375" xlink:href="#BitstreamVeraSans-Roman-35"/>
       <use x="190.869140625" xlink:href="#BitstreamVeraSans-Roman-b0"/>
      </g>
     </g>
    </g>
    <g id="xtick_13">
     <g id="line2d_19">
      <path clip-path="url(#pbd79c3c9f0)" d="
M295.2 319.68
L364.32 319.68" style="fill:none;stroke:#000000;stroke-dasharray:1.000000,3.000000;stroke-dashoffset:0.0;stroke-width:0.5;"/>
     </g>
     <g id="text_17">
      <!-- 180° -->
      <g transform="translate(358.0095 322.99125)scale(0.12 -0.12)">
       <use xlink:href="#BitstreamVeraSans-Roman-31"/>
       <use x="63.623046875" xlink:href="#BitstreamVeraSans-Roman-38"/>
       <use x="127.24609375" xlink:href="#BitstreamVeraSans-Roman-30"/>
       <use x="190.869140625" xlink:href="#BitstreamVeraSans-Roman-b0"/>
      </g>
     </g>
    </g>
    <g id="xtick_14">
     <g id="line2d_20">
      <path clip-path="url(#pbd79c3c9f0)" d="
M295.2 319.68
L344.075 270.805" style="fill:none;stroke:#000000;stroke-dasharray:1.000000,3.000000;stroke-dashoffset:0.0;stroke-width:0.5;"/>
     </g>
     <g id="text_18">
      <!-- 225° -->
      <g transform="translate(335.520867787 269.228507213)scale(0.12 -0.12)">
       <use xlink:href="#BitstreamVeraSans-Roman-32"/>
       <use x="63.623046875" xlink:href="#BitstreamVeraSans-Roman-32"/>
       <use x="127.24609375" xlink:href="#BitstreamVeraSans-Roman-35"/>
       <use x="190.869140625" xlink:href="#BitstreamVeraSans-Roman-b0"/>
      </g>
     </g>
    </g>
    <g id="xtick_15">
     <g id="line2d_21">
      <path clip-path="url(#pbd79c3c9f0)" d="
M295.2 319.68
L295.2 250.56" style="fill:none;stroke:#000000;stroke-dasharray:1.000000,3.000000;stroke-dashoffset:0.0;stroke-width:0.5;"/>
     </g>
     <g id="text_19">
      <!-- 270° -->
      <g transform="translate(281.758125 246.95925)scale(0.12 -0.12)">
       <use xlink:href="#BitstreamVeraSans-Roman-32"/>
       <use x="63.623046875" xlink:href="#BitstreamVeraSans-Roman-37"/>
       <use x="127.24609375" xlink:href="#BitstreamVeraSans-Roman-30"/>
       <use x="190.869140625" xlink:href="#BitstreamVeraSans-Roman-b0"/>
      </g>
     </g>
    </g>
    <g id="xtick_16">
     <g id="line2d_22">
      <path clip-path="url(#pbd79c3c9f0)" d="
M295.2 319.68
L246.325 270.805" style="fill:none;stroke:#000000;stroke-dasharray:1.000000,3.000000;stroke-dashoffset:0.0;stroke-width:0.5;"/>
     </g>
     <g id="text_20">
      <!-- 315° -->
      <g transform="translate(228.013194713 269.228507213)scale(0.12 -0.12)">
       <use xlink:href="#BitstreamVeraSans-Roman-33"/>
       <use x="63.623046875" xlink:href="#BitstreamVeraSans-Roman-31"/>
       <use x="127.24609375" xlink:href="#BitstreamVeraSans-Roman-35"/>
       <use x="190.869140625" xlink:href="#BitstreamVeraSans-Roman-b0"/>
      </g>
     </g>
    </g>
   </g>
   <g id="matplotlib.axis_4">
    <g id="ytick_4">
     <g id="line2d_23">
      <path clip-path="url(#pbd79c3c9f0)" d="
M295.2 319.68
L295.2 319.68" style="fill:none;stroke:#000000;stroke-dasharray:1.000000,3.000000;stroke-dashoffset:0.0;stroke-width:0.5;"/>
     </g>
     <g id="text_21">
      <!-- 0.0000 -->
      <g transform="translate(295.2 318.4321875)scale(0.06 -0.06)">
       <use xlink:href="#BitstreamVeraSans-Roman-30"/>
       <use x="63.623046875" xlink:href="#BitstreamVeraSans-Roman-2e"/>
       <use x="95.41015625" xlink:href="#BitstreamVeraSans-Roman-30"/>
       <use x="159.033203125" xlink:href="#BitstreamVeraSans-Roman-30"/>
       <use x="222.65625" xlink:href="#BitstreamVeraSans-Roman-30"/>
       <use x="286.279296875" xlink:href="#BitstreamVeraSans-Roman-30"/>
      </g>
     </g>
    </g>
    <g id="ytick_5">
     <g id="line2d_24">
      <path clip-path="url(#pbd79c3c9f0)" d="
M256.8 319.68
L256.823 321.02
L256.894 322.359
L257.174 325.024
L257.639 327.664
L258.288 330.264
L259.116 332.814
L260.12 335.299
L261.295 337.708
L262.635 340.029
L264.134 342.251
L265.784 344.363
L267.577 346.355
L269.505 348.217
L271.559 349.94
L273.727 351.515
L276 352.935
L278.367 354.194
L280.815 355.284
L283.334 356.201
L285.91 356.939
L288.532 357.497
L291.186 357.87
L293.86 358.057
L296.54 358.057
L299.214 357.87
L301.868 357.497
L304.49 356.939
L307.066 356.201
L309.585 355.284
L312.033 354.194
L314.4 352.935
L316.673 351.515
L318.841 349.94
L320.895 348.217
L322.823 346.355
L324.616 344.363
L326.266 342.251
L327.765 340.029
L329.105 337.708
L330.28 335.299
L331.284 332.814
L332.112 330.264
L332.761 327.664
L333.226 325.024
L333.506 322.359
L333.6 319.68
L333.506 317.001
L333.226 314.336
L332.761 311.696
L332.112 309.096
L331.284 306.546
L330.28 304.061
L329.105 301.652
L327.765 299.331
L326.266 297.109
L324.616 294.997
L322.823 293.005
L320.895 291.143
L318.841 289.42
L316.673 287.845
L314.4 286.425
L312.033 285.166
L309.585 284.076
L307.066 283.159
L304.49 282.421
L301.868 281.863
L299.214 281.49
L296.54 281.303
L293.86 281.303
L291.186 281.49
L288.532 281.863
L285.91 282.421
L283.334 283.159
L280.815 284.076
L278.367 285.166
L276 286.425
L273.727 287.845
L271.559 289.42
L269.505 291.143
L267.577 293.005
L265.784 294.997
L264.134 297.109
L262.635 299.331
L261.295 301.652
L260.12 304.061
L259.116 306.546
L258.288 309.096
L257.639 311.696
L257.174 314.336
L256.894 317.001
L256.8 319.68
L256.8 319.68" style="fill:none;stroke:#000000;stroke-dasharray:1.000000,3.000000;stroke-dashoffset:0.0;stroke-width:0.5;"/>
     </g>
     <g id="text_22">
      <!-- 0.0025 -->
      <g transform="translate(259.723025952 333.127231303)scale(0.06 -0.06)">
       <use xlink:href="#BitstreamVeraSans-Roman-30"/>
       <use x="63.623046875" xlink:href="#BitstreamVeraSans-Roman-2e"/>
       <use x="95.41015625" xlink:href="#BitstreamVeraSans-Roman-30"/>
       <use x="159.033203125" xlink:href="#BitstreamVeraSans-Roman-30"/>
       <use x="222.65625" xlink:href="#BitstreamVeraSans-Roman-32"/>
       <use x="286.279296875" xlink:href="#BitstreamVeraSans-Roman-35"/>
      </g>
     </g>
    </g>
   </g>
   <g id="patch_5">
    <path d="
M295.2 388.8
C313.531 388.8 331.113 381.517 344.075 368.555
C357.037 355.593 364.32 338.011 364.32 319.68
C364.32 301.349 357.037 283.767 344.075 270.805
C331.113 257.843 313.531 250.56 295.2 250.56
C276.869 250.56 259.287 257.843 246.325 270.805
C233.363 283.767 226.08 301.349 226.08 319.68
C226.08 338.011 233.363 355.593 246.325 368.555
C259.287 381.517 276.869 388.8 295.2 388.8
z
" style="fill:none;stroke:#000000;"/>
   </g>
   <g id="text_23">
    <!-- Normalized Intensity vs Angle, n- (1.6+0.01j) x-4.83 -->
    <defs>
     <path d="
M9.8125 72.9062
L23.0938 72.9062
L55.4219 11.9219
L55.4219 72.9062
L64.9844 72.9062
L64.9844 0
L51.7031 0
L19.3906 60.9844
L19.3906 0
L9.8125 0
z
" id="BitstreamVeraSans-Roman-4e"/>
     <path d="
M52 44.1875
Q55.375 50.25 60.0625 53.125
Q64.75 56 71.0938 56
Q79.6406 56 84.2812 50.0156
Q88.9219 44.0469 88.9219 33.0156
L88.9219 0
L79.8906 0
L79.8906 32.7188
Q79.8906 40.5781 77.0938 44.375
Q74.3125 48.1875 68.6094 48.1875
Q61.625 48.1875 57.5625 43.5469
Q53.5156 38.9219 53.5156 30.9062
L53.5156 0
L44.4844 0
L44.4844 32.7188
Q44.4844 40.625 41.7031 44.4062
Q38.9219 48.1875 33.1094 48.1875
Q26.2188 48.1875 22.1562 43.5312
Q18.1094 38.875 18.1094 30.9062
L18.1094 0
L9.07812 0
L9.07812 54.6875
L18.1094 54.6875
L18.1094 46.1875
Q21.1875 51.2188 25.4844 53.6094
Q29.7812 56 35.6875 56
Q41.6562 56 45.8281 52.9688
Q50 49.9531 52 44.1875" id="BitstreamVeraSans-Roman-6d"/>
     <path d="
M5.51562 54.6875
L48.1875 54.6875
L48.1875 46.4844
L14.4062 7.17188
L48.1875 7.17188
L48.1875 0
L4.29688 0
L4.29688 8.20312
L38.0938 47.5156
L5.51562 47.5156
z
" id="BitstreamVeraSans-Roman-7a"/>
     <path d="
M9.42188 54.6875
L18.4062 54.6875
L18.4062 0
L9.42188 0
z

M9.42188 75.9844
L18.4062 75.9844
L18.4062 64.5938
L9.42188 64.5938
z
" id="BitstreamVeraSans-Roman-69"/>
     <path d="
M32.1719 -5.07812
Q28.375 -14.8438 24.75 -17.8125
Q21.1406 -20.7969 15.0938 -20.7969
L7.90625 -20.7969
L7.90625 -13.2812
L13.1875 -13.2812
Q16.8906 -13.2812 18.9375 -11.5156
Q21 -9.76562 23.4844 -3.21875
L25.0938 0.875
L2.98438 54.6875
L12.5 54.6875
L29.5938 11.9219
L46.6875 54.6875
L56.2031 54.6875
z
" id="BitstreamVeraSans-Roman-79"/>
     <path d="
M45.4062 46.3906
L45.4062 75.9844
L54.3906 75.9844
L54.3906 0
L45.4062 0
L45.4062 8.20312
Q42.5781 3.32812 38.25 0.953125
Q33.9375 -1.42188 27.875 -1.42188
Q17.9688 -1.42188 11.7344 6.48438
Q5.51562 14.4062 5.51562 27.2969
Q5.51562 40.1875 11.7344 48.0938
Q17.9688 56 27.875 56
Q33.9375 56 38.25 53.625
Q42.5781 51.2656 45.4062 46.3906
M14.7969 27.2969
Q14.7969 17.3906 18.875 11.75
Q22.9531 6.10938 30.0781 6.10938
Q37.2031 6.10938 41.2969 11.75
Q45.4062 17.3906 45.4062 27.2969
Q45.4062 37.2031 41.2969 42.8438
Q37.2031 48.4844 30.0781 48.4844
Q22.9531 48.4844 18.875 42.8438
Q14.7969 37.2031 14.7969 27.2969" id="BitstreamVeraSans-Roman-64"/>
     <path d="
M18.3125 70.2188
L18.3125 54.6875
L36.8125 54.6875
L36.8125 47.7031
L18.3125 47.7031
L18.3125 18.0156
Q18.3125 11.3281 20.1406 9.42188
Q21.9688 7.51562 27.5938 7.51562
L36.8125 7.51562
L36.8125 0
L27.5938 0
Q17.1875 0 13.2344 3.875
Q9.28125 7.76562 9.28125 18.0156
L9.28125 47.7031
L2.6875 47.7031
L2.6875 54.6875
L9.28125 54.6875
L9.28125 70.2188
z
" id="BitstreamVeraSans-Roman-74"/>
     <path d="
M9.8125 72.9062
L19.6719 72.9062
L19.6719 0
L9.8125 0
z
" id="BitstreamVeraSans-Roman-49"/>
    </defs>
    <g transform="translate(191.14625 234.21945)scale(0.08 -0.08)">
     <use xlink:href="#BitstreamVeraSans-Roman-4e"/>
     <use x="74.8046875" xlink:href="#BitstreamVeraSans-Roman-6f"/>
     <use x="135.986328125" xlink:href="#BitstreamVeraSans-Roman-72"/>
     <use x="175.349609375" xlink:href="#BitstreamVeraSans-Roman-6d"/>
     <use x="272.76171875" xlink:href="#BitstreamVeraSans-Roman-61"/>
     <use x="334.041015625" xlink:href="#BitstreamVeraSans-Roman-6c"/>
     <use x="361.82421875" xlink:href="#BitstreamVeraSans-Roman-69"/>
     <use x="389.607421875" xlink:href="#BitstreamVeraSans-Roman-7a"/>
     <use x="442.09765625" xlink:href="#BitstreamVeraSans-Roman-65"/>
     <use x="503.62109375" xlink:href="#BitstreamVeraSans-Roman-64"/>
     <use x="567.09765625" xlink:href="#BitstreamVeraSans-Roman-20"/>
     <use x="598.884765625" xlink:href="#BitstreamVeraSans-Roman-49"/>
     <use x="628.376953125" xlink:href="#BitstreamVeraSans-Roman-6e"/>
     <use x="691.755859375" xlink:href="#BitstreamVeraSans-Roman-74"/>
     <use x="730.96484375" xlink:href="#BitstreamVeraSans-Roman-65"/>
     <use x="792.48828125" xlink:href="#BitstreamVeraSans-Roman-6e"/>
     <use x="855.8671875" xlink:href="#BitstreamVeraSans-Roman-73"/>
     <use x="907.966796875" xlink:href="#BitstreamVeraSans-Roman-69"/>
     <use x="935.75" xlink:href="#BitstreamVeraSans-Roman-74"/>
     <use x="974.958984375" xlink:href="#BitstreamVeraSans-Roman-79"/>
     <use x="1034.13867188" xlink:href="#BitstreamVeraSans-Roman-20"/>
     <use x="1065.92578125" xlink:href="#BitstreamVeraSans-Roman-76"/>
     <use x="1125.10546875" xlink:href="#BitstreamVeraSans-Roman-73"/>
     <use x="1177.20507812" xlink:href="#BitstreamVeraSans-Roman-20"/>
     <use x="1208.9921875" xlink:href="#BitstreamVeraSans-Roman-41"/>
     <use x="1277.40039062" xlink:href="#BitstreamVeraSans-Roman-6e"/>
     <use x="1340.77929688" xlink:href="#BitstreamVeraSans-Roman-67"/>
     <use x="1404.25585938" xlink:href="#BitstreamVeraSans-Roman-6c"/>
     <use x="1432.0390625" xlink:href="#BitstreamVeraSans-Roman-65"/>
     <use x="1493.5625" xlink:href="#BitstreamVeraSans-Roman-2c"/>
     <use x="1525.34960938" xlink:href="#BitstreamVeraSans-Roman-20"/>
     <use x="1557.13671875" xlink:href="#BitstreamVeraSans-Roman-6e"/>
     <use x="1620.515625" xlink:href="#BitstreamVeraSans-Roman-2d"/>
     <use x="1656.59960938" xlink:href="#BitstreamVeraSans-Roman-20"/>
     <use x="1688.38671875" xlink:href="#BitstreamVeraSans-Roman-28"/>
     <use x="1727.40039062" xlink:href="#BitstreamVeraSans-Roman-31"/>
     <use x="1791.0234375" xlink:href="#BitstreamVeraSans-Roman-2e"/>
     <use x="1822.81054688" xlink:href="#BitstreamVeraSans-Roman-36"/>
     <use x="1886.43359375" xlink:href="#BitstreamVeraSans-Roman-2b"/>
     <use x="1970.22265625" xlink:href="#BitstreamVeraSans-Roman-30"/>
     <use x="2033.84570312" xlink:href="#BitstreamVeraSans-Roman-2e"/>
     <use x="2065.6328125" xlink:href="#BitstreamVeraSans-Roman-30"/>
     <use x="2129.25585938" xlink:href="#BitstreamVeraSans-Roman-31"/>
     <use x="2192.87890625" xlink:href="#BitstreamVeraSans-Roman-6a"/>
     <use x="2220.66210938" xlink:href="#BitstreamVeraSans-Roman-29"/>
     <use x="2259.67578125" xlink:href="#BitstreamVeraSans-Roman-20"/>
     <use x="2291.46289062" xlink:href="#BitstreamVeraSans-Roman-78"/>
     <use x="2350.64257812" xlink:href="#BitstreamVeraSans-Roman-2d"/>
     <use x="2386.7265625" xlink:href="#BitstreamVeraSans-Roman-34"/>
     <use x="2450.34960938" xlink:href="#BitstreamVeraSans-Roman-2e"/>
     <use x="2482.13671875" xlink:href="#BitstreamVeraSans-Roman-38"/>
     <use x="2545.75976562" xlink:href="#BitstreamVeraSans-Roman-33"/>
    </g>
   </g>
  </g>
 </g>
 <defs>
  <clipPath id="p38c0cf76b6">
   <path d="
M295.2 181.44
C313.531 181.44 331.113 174.157 344.075 161.195
C357.037 148.233 364.32 130.651 364.32 112.32
C364.32 93.9892 357.037 76.4066 344.075 63.4448
C331.113 50.4829 313.531 43.2 295.2 43.2
C276.869 43.2 259.287 50.4829 246.325 63.4448
C233.363 76.4066 226.08 93.9892 226.08 112.32
C226.08 130.651 233.363 148.233 246.325 161.195
C259.287 174.157 276.869 181.44 295.2 181.44
z
"/>
  </clipPath>
  <clipPath id="pbd79c3c9f0">
   <path d="
M295.2 388.8
C313.531 388.8 331.113 381.517 344.075 368.555
C357.037 355.593 364.32 338.011 364.32 319.68
C364.32 301.349 357.037 283.767 344.075 270.805
C331.113 257.843 313.531 250.56 295.2 250.56
C276.869 250.56 259.287 257.843 246.325 270.805
C233.363 283.767 226.08 301.349 226.08 319.68
C226.08 338.011 233.363 355.593 246.325 368.555
C259.287 381.517 276.869 388.8 295.2 388.8
z
"/>
  </clipPath>
 </defs>
</svg>
